<?xml version="1.0" standalone="no"?>
<!DOCTYPE svg PUBLIC "-//W3C//DTD SVG 20010904//EN"
 "http://www.w3.org/TR/2001/REC-SVG-20010904/DTD/svg10.dtd">
<svg version="1.0" xmlns="http://www.w3.org/2000/svg"
 width="1764.000000pt" height="1768.000000pt" viewBox="0 0 1764.000000 1768.000000"
 preserveAspectRatio="xMidYMid meet">

<g transform="translate(0.000000,1768.000000) scale(0.100000,-0.100000)"
fill="#000000" stroke="none">
<path d="M7230 17350 c0 -25 4 -30 25 -30 21 0 25 5 25 30 0 25 -4 30 -25 30
-21 0 -25 -5 -25 -30z"/>
<path d="M8755 17355 c-16 -15 -25 -36 -25 -55 0 -23 -4 -30 -20 -30 -13 0
-20 -7 -20 -20 0 -13 7 -20 20 -20 19 0 20 -7 20 -115 0 -108 1 -115 20 -115
19 0 20 7 20 115 l0 115 40 0 c33 0 40 3 40 20 0 17 -7 20 -40 20 -43 0 -50
13 -30 51 8 13 21 19 45 19 28 0 35 4 35 20 0 31 -73 28 -105 -5z"/>
<path d="M9440 17350 c0 -25 4 -30 25 -30 21 0 25 5 25 30 0 25 -4 30 -25 30
-21 0 -25 -5 -25 -30z"/>
<path d="M9615 17355 c-16 -15 -25 -36 -25 -55 0 -23 -4 -30 -20 -30 -13 0
-20 -7 -20 -20 0 -13 7 -20 20 -20 19 0 20 -7 20 -115 0 -108 1 -115 20 -115
19 0 20 7 20 115 l0 115 40 0 c33 0 40 3 40 20 0 17 -7 20 -40 20 -43 0 -50
13 -30 51 8 13 21 19 45 19 28 0 35 4 35 20 0 31 -73 28 -105 -5z"/>
<path d="M9802 17368 c-12 -6 -25 -23 -28 -37 -12 -54 -16 -61 -35 -61 -12 0
-19 -7 -19 -20 0 -13 7 -20 20 -20 19 0 20 -7 20 -115 l0 -115 25 0 25 0 0
114 0 115 37 3 c27 2 39 8 41 21 3 14 -4 17 -37 17 -34 0 -41 3 -41 19 0 40
11 51 51 51 32 0 39 3 39 20 0 17 -6 20 -37 19 -21 0 -48 -5 -61 -11z"/>
<path d="M12250 17309 l0 -70 -22 15 c-26 18 -90 21 -120 5 -25 -13 -58 -84
-58 -124 0 -40 33 -111 58 -124 30 -16 94 -13 120 5 20 14 22 14 22 0 0 -10 9
-16 25 -16 l25 0 0 190 0 190 -25 0 c-24 0 -25 -2 -25 -71z m-52 -75 c47 -13
68 -105 37 -163 -17 -33 -54 -46 -88 -30 -61 28 -64 158 -3 187 26 13 26 13
54 6z"/>
<path d="M4100 17180 l0 -182 100 4 c93 3 101 5 127 31 40 40 39 99 -3 136
l-30 27 23 18 c33 25 32 84 -3 117 -23 21 -36 24 -120 27 l-94 4 0 -182z m171
130 c23 -13 26 -62 3 -84 -10 -11 -34 -16 -70 -16 l-54 0 0 55 0 55 51 0 c28
0 59 -5 70 -10z m13 -156 c9 -8 16 -31 16 -49 0 -50 -21 -65 -91 -65 l-59 0 0
65 0 65 59 0 c41 0 65 -5 75 -16z"/>
<path d="M4440 17180 l0 -180 120 0 c113 0 120 1 120 20 0 19 -7 20 -95 20
l-95 0 0 65 0 65 85 0 c78 0 85 2 85 20 0 18 -7 20 -85 20 l-85 0 0 55 0 55
90 0 c83 0 90 1 90 20 0 19 -7 20 -115 20 l-115 0 0 -180z"/>
<path d="M4760 17180 l0 -180 25 0 c24 0 25 2 25 75 l0 75 44 0 c39 0 48 -4
69 -32 14 -18 34 -52 46 -75 17 -33 27 -43 46 -43 l25 0 -34 68 c-19 38 -41
74 -50 81 -14 12 -13 16 9 43 16 19 25 42 25 64 0 76 -42 104 -155 104 l-75 0
0 -180z m162 123 c24 -21 23 -68 -2 -93 -14 -14 -33 -20 -65 -20 l-45 0 0 65
0 65 47 0 c29 0 53 -6 65 -17z"/>
<path d="M5320 17337 c-53 -35 -75 -81 -75 -157 0 -76 22 -122 75 -157 63 -43
220 -23 220 28 0 16 -4 19 -17 14 -85 -36 -98 -39 -143 -24 -56 18 -82 60 -84
133 -1 91 31 137 107 151 25 5 48 1 82 -14 58 -25 55 -25 55 -1 0 51 -157 70
-220 27z"/>
<path d="M9060 17180 l0 -182 93 4 c156 7 207 50 207 178 0 128 -51 171 -207
178 l-93 4 0 -182z m185 126 c43 -18 65 -61 65 -126 0 -97 -47 -140 -150 -140
l-50 0 0 140 0 140 50 0 c28 0 66 -6 85 -14z"/>
<path d="M11495 17350 c-85 -35 -122 -168 -75 -264 29 -59 63 -80 136 -84 83
-6 134 11 134 44 0 28 -3 29 -33 10 -38 -25 -98 -29 -137 -9 -86 44 -95 207
-15 259 35 23 114 23 148 1 34 -22 37 -22 37 7 0 18 -8 27 -31 35 -37 13 -135
14 -164 1z"/>
<path d="M13927 17187 c-37 -96 -67 -177 -67 -181 0 -3 11 -6 24 -6 20 0 27 8
38 43 l15 42 85 3 85 3 13 -42 c14 -42 27 -53 53 -47 11 2 -1 44 -53 178 -65
168 -69 175 -97 178 -28 3 -29 2 -96 -171z m132 25 l30 -82 -64 0 c-36 0 -65
3 -65 8 0 6 9 30 49 136 7 16 13 27 16 25 2 -3 17 -42 34 -87z"/>
<path d="M14228 17181 l46 -181 31 0 31 0 33 138 c19 75 37 143 41 151 5 9 18
-31 34 -100 49 -204 43 -191 78 -187 l31 3 43 165 c24 91 43 171 44 178 0 6
-10 12 -23 12 -21 0 -25 -11 -56 -137 -18 -76 -37 -141 -40 -145 -4 -5 -17 34
-29 85 -46 186 -50 197 -81 197 -26 0 -27 -3 -60 -137 -19 -76 -36 -142 -39
-148 -3 -5 -22 56 -42 135 -34 138 -37 145 -62 148 l-26 3 46 -180z"/>
<path d="M14770 17338 c-62 -42 -75 -71 -75 -158 0 -87 13 -116 75 -157 41
-28 139 -31 200 -7 l40 16 0 79 0 79 -65 0 c-58 0 -65 -2 -65 -20 0 -17 7 -20
40 -20 l40 0 0 -50 c0 -49 0 -49 -40 -60 -87 -23 -161 19 -175 98 -16 99 24
173 101 186 37 7 70 0 137 -29 13 -5 17 -2 17 14 0 51 -167 72 -230 29z"/>
<path d="M15100 17180 c0 -173 1 -180 20 -180 19 0 20 7 20 148 1 173 -4 174
98 -20 65 -124 68 -128 100 -128 l32 0 0 180 c0 173 -1 180 -20 180 -19 0 -20
-7 -20 -147 -1 -119 -3 -145 -13 -132 -7 9 -43 75 -82 148 -68 126 -71 131
-102 131 l-33 0 0 -180z"/>
<path d="M11060 17310 c0 -29 -4 -40 -15 -40 -8 0 -15 -9 -15 -20 0 -11 7 -20
15 -20 12 0 15 -17 15 -90 0 -83 2 -93 25 -115 18 -19 35 -25 70 -25 38 0 45
3 45 19 0 16 -8 20 -42 23 l-43 3 -3 93 -3 92 46 0 c38 0 45 3 45 20 0 17 -7
20 -45 20 l-45 0 0 40 c0 36 -2 40 -25 40 -22 0 -25 -4 -25 -40z"/>
<path d="M5641 17254 c-29 -21 -51 -72 -51 -119 0 -47 22 -98 51 -119 31 -21
117 -21 148 0 29 21 51 72 51 119 0 47 -22 98 -51 119 -31 21 -117 21 -148 0z
m132 -46 c19 -23 24 -107 6 -139 -25 -48 -105 -44 -128 7 -14 32 -14 86 0 118
22 48 86 56 122 14z"/>
<path d="M5910 17135 l0 -135 25 0 c25 0 25 0 25 94 0 75 4 98 18 114 27 32
66 38 91 13 19 -19 21 -33 21 -121 l0 -100 25 0 c25 0 25 0 25 99 0 96 1 100
26 120 31 25 53 26 80 7 16 -12 19 -29 22 -120 4 -96 6 -106 23 -106 18 0 19
8 19 109 0 94 -3 112 -21 135 -28 36 -95 37 -135 2 l-28 -23 -19 23 c-22 29
-89 33 -125 8 -20 -14 -22 -14 -22 0 0 10 -9 16 -25 16 l-25 0 0 -135z"/>
<path d="M6400 17085 l0 -185 25 0 c24 0 25 2 25 66 l0 65 22 -15 c26 -18 90
-21 119 -6 30 16 52 70 52 125 0 55 -22 109 -52 125 -29 15 -93 12 -119 -6
-20 -14 -22 -14 -22 0 0 10 -9 16 -25 16 l-25 0 0 -185z m167 131 c25 -21 28
-31 28 -81 0 -50 -3 -60 -29 -82 -56 -48 -116 -7 -116 79 0 57 12 86 43 98 34
14 44 12 74 -14z"/>
<path d="M6738 17259 c-10 -5 -18 -16 -18 -24 0 -11 8 -13 33 -7 57 13 108 7
123 -13 8 -10 14 -22 14 -26 0 -3 -29 -9 -65 -12 -70 -5 -100 -22 -116 -66
-12 -30 6 -88 31 -101 33 -18 104 -12 128 10 l22 21 0 -21 c0 -15 7 -20 25
-20 24 0 25 2 25 68 -1 157 -30 202 -128 202 -31 0 -65 -5 -74 -11z m152 -145
c0 -30 -49 -84 -77 -84 -30 0 -63 29 -63 55 0 34 36 55 92 55 45 0 48 -2 48
-26z"/>
<path d="M7020 17135 l0 -135 25 0 c25 0 25 1 25 85 0 46 5 95 11 109 13 27
56 49 85 44 11 -2 20 4 22 15 3 14 -4 17 -35 17 -21 0 -49 -7 -61 -16 -20 -14
-22 -14 -22 0 0 10 -9 16 -25 16 l-25 0 0 -135z"/>
<path d="M7230 17135 l0 -135 25 0 25 0 0 135 0 135 -25 0 -25 0 0 -135z"/>
<path d="M7380 17250 c-25 -25 -26 -81 -2 -103 10 -9 41 -21 70 -28 59 -12 79
-35 58 -65 -15 -20 -68 -24 -123 -11 -29 8 -33 6 -33 -11 0 -38 139 -47 184
-11 57 44 23 118 -61 134 -53 10 -73 22 -73 46 0 35 71 47 136 22 9 -3 14 2
14 15 0 26 -18 32 -91 32 -46 0 -64 -5 -79 -20z"/>
<path d="M7654 17236 c-32 -32 -34 -38 -34 -101 0 -63 2 -69 34 -101 30 -30
40 -34 85 -34 41 0 56 5 81 28 59 52 59 162 0 215 -25 22 -40 27 -81 27 -45 0
-55 -4 -85 -34z m133 -20 c25 -21 28 -31 28 -81 0 -50 -3 -60 -28 -81 -35 -30
-59 -30 -94 0 -24 21 -27 31 -27 81 0 50 3 60 27 81 35 30 59 30 94 0z"/>
<path d="M7940 17135 c0 -126 1 -135 19 -135 17 0 19 10 23 96 3 91 5 97 31
120 34 29 61 30 87 4 17 -17 20 -33 20 -120 l0 -100 26 0 26 0 -4 109 c-3 99
-6 112 -27 135 -32 33 -96 36 -135 5 l-26 -20 0 20 c0 14 -6 21 -20 21 -19 0
-20 -7 -20 -135z"/>
<path d="M8438 17241 c-32 -28 -33 -32 -33 -106 0 -74 1 -78 33 -106 27 -24
41 -29 83 -29 28 0 60 7 74 16 26 17 55 80 55 119 0 39 -29 102 -55 119 -14 9
-46 16 -74 16 -42 0 -56 -5 -83 -29z m133 -30 c24 -24 29 -38 29 -76 0 -38 -5
-52 -30 -77 -25 -24 -36 -29 -58 -24 -100 24 -86 200 16 205 8 1 27 -12 43
-28z"/>
<path d="M9440 17135 l0 -135 25 0 25 0 0 135 0 135 -25 0 -25 0 0 -135z"/>
<path d="M9972 17254 c-33 -23 -52 -67 -52 -119 0 -92 47 -135 145 -135 64 0
95 13 95 39 0 17 -3 17 -46 3 -65 -21 -120 -4 -140 43 -8 19 -14 37 -14 40 0
3 47 5 105 5 99 0 105 1 105 20 0 33 -26 86 -51 104 -30 21 -117 21 -147 0z
m111 -25 c25 -14 37 -28 37 -46 0 -9 -22 -13 -75 -13 -79 0 -94 11 -57 42 32
29 62 34 95 17z"/>
<path d="M10240 17135 l0 -135 25 0 c25 0 25 0 25 98 0 113 13 136 75 136 27
0 35 4 35 18 0 23 -56 25 -88 2 -20 -14 -22 -14 -22 0 0 10 -9 16 -25 16 l-25
0 0 -135z"/>
<path d="M10479 17255 c-53 -29 -75 -124 -44 -189 21 -45 62 -66 127 -66 76 0
98 8 98 35 0 22 -1 22 -42 8 -24 -8 -56 -12 -75 -8 -35 6 -73 46 -73 76 0 17
9 19 100 19 l100 0 0 31 c0 39 -26 84 -57 98 -33 15 -103 13 -134 -4z m110
-28 c13 -6 28 -22 32 -34 8 -23 7 -23 -71 -23 -84 0 -99 10 -62 42 33 29 65
34 101 15z"/>
<path d="M10740 17135 l0 -135 25 0 c25 0 25 0 25 94 0 75 4 98 18 114 26 32
64 37 93 14 22 -19 24 -28 27 -121 4 -91 6 -101 23 -101 17 0 19 8 19 100 0
105 -13 151 -45 164 -30 11 -90 6 -113 -10 -20 -14 -22 -14 -22 0 0 10 -9 16
-25 16 l-25 0 0 -135z"/>
<path d="M11788 17241 c-32 -28 -33 -32 -33 -106 0 -74 1 -78 33 -106 27 -24
41 -29 83 -29 28 0 60 7 74 16 26 17 55 80 55 119 0 39 -29 102 -55 119 -14 9
-46 16 -74 16 -42 0 -56 -5 -83 -29z m133 -30 c24 -24 29 -38 29 -76 0 -38 -5
-52 -30 -77 -25 -24 -36 -29 -58 -24 -100 24 -86 200 16 205 8 1 27 -12 43
-28z"/>
<path d="M12425 17248 c-51 -40 -69 -121 -40 -178 26 -50 61 -70 124 -70 79 0
101 8 101 35 0 22 -1 22 -42 8 -24 -8 -56 -12 -75 -8 -35 6 -73 46 -73 76 0
17 9 19 100 19 l100 0 0 30 c0 38 -24 86 -49 100 -35 18 -116 12 -146 -12z
m138 -39 c9 -12 17 -25 17 -30 0 -5 -36 -9 -80 -9 -44 0 -80 3 -80 6 0 16 24
46 43 54 32 14 79 3 100 -21z"/>
<path d="M12707 17250 c-30 -23 -36 -64 -14 -93 7 -10 39 -26 71 -35 74 -22
91 -45 56 -74 -24 -20 -51 -20 -117 -2 -18 5 -23 2 -23 -14 0 -11 7 -23 16
-26 26 -10 121 -7 147 5 35 16 51 55 37 90 -12 28 -34 40 -106 59 -51 12 -64
38 -34 62 25 20 50 22 98 9 31 -9 33 -8 30 12 -3 20 -10 22 -69 25 -54 2 -70
-1 -92 -18z"/>
<path d="M13152 17254 c-33 -23 -52 -67 -52 -119 0 -89 43 -135 126 -135 45 0
57 4 82 30 54 53 54 157 0 210 -25 26 -37 30 -82 30 -30 0 -61 -6 -74 -16z
m119 -43 c24 -24 29 -38 29 -76 0 -38 -5 -52 -30 -77 -25 -24 -36 -29 -58 -24
-34 9 -62 41 -63 75 -3 72 10 107 44 121 36 14 47 12 78 -19z"/>
<path d="M13420 17135 l0 -135 25 0 c25 0 25 0 25 93 0 102 11 130 56 141 17
5 35 1 50 -9 23 -15 24 -21 24 -120 l0 -105 25 0 25 0 0 100 c0 105 -13 151
-45 164 -30 11 -90 6 -113 -10 -20 -14 -22 -14 -22 0 0 10 -9 16 -25 16 l-25
0 0 -135z"/>
<path d="M1700 16942 c-28 -23 -38 -113 -18 -152 32 -60 110 -49 128 20 28
105 -41 188 -110 132z m77 -32 c25 -49 8 -131 -29 -138 -29 -6 -48 26 -48 83
0 81 47 114 77 55z"/>
<path d="M1193 16883 c-15 -3 -23 -12 -23 -24 0 -17 5 -19 35 -13 l35 6 0
-116 0 -116 -35 0 c-24 0 -35 -5 -35 -15 0 -12 17 -15 90 -15 73 0 90 3 90 15
0 10 -11 15 -35 15 l-35 0 0 135 0 135 -32 -1 c-18 -1 -43 -4 -55 -6z"/>
<path d="M1457 16879 c-64 -37 -62 -244 1 -278 36 -19 96 -13 120 12 33 35 48
116 33 179 -16 70 -43 98 -95 98 -23 0 -49 -5 -59 -11z m100 -45 c12 -19 17
-47 17 -94 0 -83 -20 -120 -65 -120 -25 0 -32 6 -45 35 -7 19 -14 57 -14 85 0
28 7 66 14 85 13 29 20 35 45 35 22 0 35 -7 48 -26z"/>
<path d="M1980 16745 c0 -12 14 -15 70 -15 68 0 70 -1 70 -24 0 -21 -6 -25
-32 -28 -18 -2 -33 -7 -33 -13 0 -5 15 -11 33 -13 26 -3 32 -8 32 -27 0 -19
-6 -24 -32 -27 -18 -2 -33 -7 -33 -13 0 -5 15 -11 33 -13 29 -3 32 -6 32 -37
0 -31 -3 -34 -32 -37 -18 -2 -33 -7 -33 -13 0 -5 15 -11 33 -13 30 -3 32 -6
32 -42 0 -36 -2 -39 -32 -42 -18 -2 -33 -7 -33 -13 0 -5 15 -11 33 -13 32 -3
32 -4 32 -57 0 -53 0 -54 -32 -57 -18 -2 -33 -7 -33 -13 0 -5 15 -11 33 -13
l32 -3 0 -64 0 -64 -32 -3 c-18 -2 -33 -7 -33 -13 0 -5 15 -11 33 -13 l32 -3
0 -89 0 -89 -32 -3 c-18 -2 -33 -7 -33 -13 0 -5 15 -11 33 -13 l32 -3 0 -134
0 -134 -32 -3 c-18 -2 -33 -7 -33 -13 0 -5 15 -11 33 -13 l32 -3 0 -240 0
-239 -70 0 c-56 0 -70 -3 -70 -15 0 -12 14 -15 70 -15 68 0 70 -1 70 -24 0
-21 -6 -25 -32 -28 -18 -2 -33 -7 -33 -13 0 -5 15 -11 33 -13 26 -3 32 -8 32
-27 0 -19 -6 -24 -32 -27 -18 -2 -33 -7 -33 -13 0 -5 15 -11 33 -13 29 -3 32
-6 32 -37 0 -31 -3 -34 -32 -37 -18 -2 -33 -7 -33 -13 0 -5 15 -11 33 -13 30
-3 32 -6 32 -42 0 -36 -2 -39 -32 -42 -18 -2 -33 -7 -33 -13 0 -5 15 -11 33
-13 32 -3 32 -4 32 -57 0 -53 0 -54 -32 -57 -18 -2 -33 -7 -33 -13 0 -5 15
-11 33 -13 l32 -3 0 -64 0 -64 -32 -3 c-18 -2 -33 -7 -33 -13 0 -5 15 -11 33
-13 l32 -3 0 -89 0 -89 -32 -3 c-18 -2 -33 -7 -33 -13 0 -5 15 -11 33 -13 l32
-3 0 -134 0 -134 -32 -3 c-18 -2 -33 -7 -33 -13 0 -5 15 -11 33 -13 l32 -3 0
-240 0 -239 -70 0 c-56 0 -70 -3 -70 -15 0 -12 14 -15 70 -15 63 0 70 -2 70
-19 0 -15 -8 -21 -32 -23 -18 -2 -33 -7 -33 -13 0 -5 15 -11 33 -13 28 -3 32
-7 32 -32 0 -25 -4 -29 -32 -32 -18 -2 -33 -7 -33 -13 0 -5 15 -11 33 -13 29
-3 32 -6 32 -37 0 -31 -3 -34 -32 -37 -18 -2 -33 -7 -33 -13 0 -5 15 -11 33
-13 30 -3 32 -6 32 -42 0 -36 -2 -39 -32 -42 -18 -2 -33 -7 -33 -13 0 -5 15
-11 33 -13 31 -3 32 -4 32 -52 0 -48 -1 -49 -32 -52 -18 -2 -33 -7 -33 -13 0
-5 15 -11 33 -13 l32 -3 0 -69 0 -69 -32 -3 c-18 -2 -33 -7 -33 -13 0 -5 15
-11 33 -13 l32 -3 0 -89 0 -89 -32 -3 c-18 -2 -33 -7 -33 -13 0 -5 15 -11 33
-13 l32 -3 0 -134 0 -134 -32 -3 c-18 -2 -33 -7 -33 -13 0 -5 15 -11 33 -13
l32 -3 0 -235 0 -234 -70 0 c-56 0 -70 -3 -70 -15 0 -12 14 -15 70 -15 68 0
70 -1 70 -24 0 -21 -6 -25 -32 -28 -18 -2 -33 -7 -33 -13 0 -5 15 -11 33 -13
28 -3 32 -7 32 -32 0 -25 -4 -29 -32 -32 -18 -2 -33 -7 -33 -13 0 -5 15 -11
33 -13 29 -3 32 -6 32 -37 0 -31 -3 -34 -32 -37 -18 -2 -33 -7 -33 -13 0 -5
15 -11 33 -13 30 -3 32 -6 32 -42 0 -36 -2 -39 -32 -42 -18 -2 -33 -7 -33 -13
0 -5 15 -11 33 -13 31 -3 32 -4 32 -52 0 -48 -1 -49 -32 -52 -18 -2 -33 -7
-33 -13 0 -5 15 -11 33 -13 l32 -3 0 -69 0 -69 -32 -3 c-18 -2 -33 -7 -33 -13
0 -5 15 -11 33 -13 l32 -3 0 -89 0 -89 -32 -3 c-18 -2 -33 -7 -33 -13 0 -5 15
-11 33 -13 l32 -3 0 -129 0 -129 -32 -3 c-18 -2 -33 -7 -33 -13 0 -5 15 -11
33 -13 l32 -3 0 -240 0 -239 -70 0 c-56 0 -70 -3 -70 -15 0 -12 14 -15 70 -15
68 0 70 -1 70 -24 0 -21 -6 -25 -32 -28 -18 -2 -33 -7 -33 -13 0 -5 15 -11 33
-13 28 -3 32 -7 32 -32 0 -25 -4 -29 -32 -32 -18 -2 -33 -7 -33 -13 0 -5 15
-11 33 -13 28 -3 32 -7 32 -32 0 -25 -4 -29 -32 -32 -18 -2 -33 -7 -33 -13 0
-5 15 -11 33 -13 31 -3 32 -5 32 -47 0 -42 -1 -44 -32 -47 -18 -2 -33 -7 -33
-13 0 -5 15 -11 33 -13 31 -3 32 -4 32 -52 0 -48 -1 -49 -32 -52 -18 -2 -33
-7 -33 -13 0 -5 15 -11 33 -13 l32 -3 0 -64 0 -64 -32 -3 c-18 -2 -33 -7 -33
-13 0 -5 15 -11 33 -13 l32 -3 0 -89 0 -89 -32 -3 c-18 -2 -33 -7 -33 -13 0
-5 15 -11 33 -13 l32 -3 0 -134 0 -134 -32 -3 c-18 -2 -33 -7 -33 -13 0 -5 15
-11 33 -13 l32 -3 0 -240 0 -239 -70 0 c-56 0 -70 -3 -70 -15 0 -12 14 -15 70
-15 68 0 70 -1 70 -24 0 -21 -6 -25 -32 -28 -18 -2 -33 -7 -33 -13 0 -5 15
-11 33 -13 26 -3 32 -8 32 -27 0 -19 -6 -24 -32 -27 -18 -2 -33 -7 -33 -13 0
-5 15 -11 33 -13 29 -3 32 -6 32 -37 0 -31 -3 -34 -32 -37 -18 -2 -33 -7 -33
-13 0 -5 15 -11 33 -13 30 -3 32 -6 32 -42 0 -36 -2 -39 -32 -42 -18 -2 -33
-7 -33 -13 0 -5 15 -11 33 -13 32 -3 32 -4 32 -57 0 -53 0 -54 -32 -57 -18 -2
-33 -7 -33 -13 0 -5 15 -11 33 -13 l32 -3 0 -64 0 -64 -32 -3 c-18 -2 -33 -7
-33 -13 0 -5 15 -11 33 -13 l32 -3 0 -89 0 -89 -32 -3 c-18 -2 -33 -7 -33 -13
0 -5 15 -11 33 -13 l32 -3 0 -134 0 -134 -32 -3 c-18 -2 -33 -7 -33 -13 0 -5
15 -11 33 -13 l32 -3 0 -240 0 -239 -70 0 c-56 0 -70 -3 -70 -15 0 -12 14 -15
70 -15 68 0 70 -1 70 -24 0 -21 -6 -25 -32 -28 -18 -2 -33 -7 -33 -13 0 -5 15
-11 33 -13 26 -3 32 -8 32 -27 0 -19 -6 -24 -32 -27 -18 -2 -33 -7 -33 -13 0
-5 15 -11 33 -13 29 -3 32 -6 32 -37 0 -31 -3 -34 -32 -37 -18 -2 -33 -7 -33
-13 0 -5 15 -11 33 -13 30 -3 32 -6 32 -42 0 -36 -2 -39 -32 -42 -18 -2 -33
-7 -33 -13 0 -5 15 -11 33 -13 32 -3 32 -4 32 -57 0 -53 0 -54 -32 -57 -18 -2
-33 -7 -33 -13 0 -5 15 -11 33 -13 l32 -3 0 -64 0 -64 -32 -3 c-18 -2 -33 -7
-33 -13 0 -5 15 -11 33 -13 l32 -3 0 -89 0 -89 -32 -3 c-18 -2 -33 -7 -33 -13
0 -5 15 -11 33 -13 l32 -3 0 -134 0 -134 -32 -3 c-18 -2 -33 -7 -33 -13 0 -5
15 -11 33 -13 l32 -3 0 -240 0 -239 -70 0 c-56 0 -70 -3 -70 -15 0 -12 14 -15
70 -15 63 0 70 -2 70 -19 0 -15 -8 -21 -32 -23 -18 -2 -33 -7 -33 -13 0 -5 15
-11 33 -13 28 -3 32 -7 32 -32 0 -25 -4 -29 -32 -32 -18 -2 -33 -7 -33 -13 0
-5 15 -11 33 -13 29 -3 32 -6 32 -37 0 -31 -3 -34 -32 -37 -18 -2 -33 -7 -33
-13 0 -5 15 -11 33 -13 30 -3 32 -6 32 -42 0 -36 -2 -39 -32 -42 -18 -2 -33
-7 -33 -13 0 -5 15 -11 33 -13 31 -3 32 -4 32 -52 0 -48 -1 -49 -32 -52 -18
-2 -33 -7 -33 -13 0 -5 15 -11 33 -13 l32 -3 0 -69 0 -69 -32 -3 c-18 -2 -33
-7 -33 -13 0 -5 15 -11 33 -13 l32 -3 0 -89 0 -89 -32 -3 c-18 -2 -33 -7 -33
-13 0 -5 15 -11 33 -13 l32 -3 0 -134 0 -134 -32 -3 c-18 -2 -33 -7 -33 -13 0
-5 15 -11 33 -13 l32 -3 0 -235 0 -234 -70 0 c-56 0 -70 -3 -70 -15 0 -12 14
-15 70 -15 68 0 70 -1 70 -24 0 -21 -6 -25 -32 -28 -18 -2 -33 -7 -33 -13 0
-5 15 -11 33 -13 28 -3 32 -7 32 -32 0 -25 -4 -29 -32 -32 -18 -2 -33 -7 -33
-13 0 -5 15 -11 33 -13 29 -3 32 -6 32 -37 0 -31 -3 -34 -32 -37 -18 -2 -33
-7 -33 -13 0 -5 15 -11 33 -13 30 -3 32 -6 32 -42 0 -36 -2 -39 -32 -42 -18
-2 -33 -7 -33 -13 0 -5 15 -11 33 -13 31 -3 32 -4 32 -52 0 -48 -1 -49 -32
-52 -18 -2 -33 -7 -33 -13 0 -5 15 -11 33 -13 l32 -3 0 -69 0 -69 -32 -3 c-18
-2 -33 -7 -33 -13 0 -5 15 -11 33 -13 l32 -3 0 -89 0 -89 -32 -3 c-18 -2 -33
-7 -33 -13 0 -5 15 -11 33 -13 l32 -3 0 -129 0 -129 -32 -3 c-18 -2 -33 -7
-33 -13 0 -5 15 -11 33 -13 l32 -3 0 -240 0 -239 -70 0 c-56 0 -70 -3 -70 -15
0 -13 143 -15 1225 -15 l1225 0 0 -70 c0 -56 3 -70 15 -70 12 0 15 14 15 70
l0 70 1615 0 1615 0 0 -70 c0 -56 3 -70 15 -70 12 0 15 14 15 70 l0 70 1610 0
1610 0 0 -70 c0 -56 3 -70 15 -70 12 0 15 14 15 70 l0 70 1615 0 1615 0 0 -70
c0 -56 3 -70 15 -70 12 0 15 14 15 70 l0 70 1565 0 1565 0 0 7610 0 7610
-7690 0 c-6829 0 -7690 -2 -7690 -15z m15350 -7595 l0 -7580 -7590 0 -7590 0
0 7580 0 7580 7590 0 7590 0 0 -7580z"/>
<path d="M14860 16355 c0 -18 5 -25 20 -25 15 0 20 7 20 25 0 18 -5 25 -20 25
-15 0 -20 -7 -20 -25z"/>
<path d="M13480 16220 c0 -143 1 -150 20 -150 18 0 20 7 20 70 l0 70 75 0 75
0 0 -70 c0 -63 2 -70 20 -70 19 0 20 7 20 150 0 143 -1 150 -20 150 -18 0 -20
-7 -20 -65 l0 -65 -75 0 -75 0 0 65 c0 58 -2 65 -20 65 -19 0 -20 -7 -20 -150z"/>
<path d="M15490 16355 c0 -12 15 -15 76 -15 57 0 75 -3 71 -12 -27 -68 -97
-251 -97 -255 0 -2 10 -3 21 -1 18 2 31 29 75 143 30 77 54 143 54 147 0 5
-45 8 -100 8 -82 0 -100 -3 -100 -15z"/>
<path d="M15811 16276 c-34 -52 -61 -104 -61 -115 0 -19 6 -21 65 -21 l65 0 0
-35 c0 -31 3 -35 25 -35 22 0 25 4 25 35 0 28 4 35 20 35 11 0 20 7 20 15 0 8
-9 15 -20 15 -19 0 -20 7 -20 100 l0 100 -29 0 c-26 0 -36 -11 -90 -94z m66
-103 c-3 -2 -25 -3 -50 -1 l-45 3 47 72 46 73 3 -71 c2 -39 1 -73 -1 -76z"/>
<path d="M16160 16220 l0 -150 75 0 c79 0 127 16 139 45 12 32 6 66 -17 89
-23 23 -23 23 -4 48 14 19 17 34 12 57 -9 44 -48 61 -135 61 l-70 0 0 -150z
m150 100 c11 -11 20 -24 20 -30 0 -24 -41 -50 -80 -50 l-40 0 0 50 0 50 40 0
c27 0 47 -7 60 -20z m14 -132 c21 -30 20 -44 -4 -68 -14 -14 -33 -20 -65 -20
l-45 0 0 55 0 55 49 0 c40 0 53 -4 65 -22z"/>
<path d="M16450 16220 l0 -150 100 0 c82 0 100 3 100 15 0 12 -16 15 -80 15
l-80 0 0 55 0 55 75 0 c60 0 75 3 75 15 0 12 -15 15 -75 15 l-75 0 0 50 0 50
75 0 c60 0 75 3 75 15 0 12 -17 15 -95 15 l-95 0 0 -150z"/>
<path d="M16720 16221 c0 -144 1 -151 20 -151 18 0 20 7 20 65 l0 65 33 0 c38
0 64 -23 96 -87 14 -29 28 -43 41 -43 11 0 20 3 20 6 0 8 -51 97 -68 116 -12
14 -11 19 7 37 27 27 27 81 2 112 -16 20 -30 24 -95 27 l-76 4 0 -151z m132
102 c41 -37 9 -93 -54 -93 l-38 0 0 55 0 55 37 0 c20 0 45 -7 55 -17z"/>
<path d="M12633 16330 c-30 -13 -48 -30 -60 -54 l-17 -36 -158 0 -158 0 0 -30
0 -30 158 0 157 0 17 -40 c13 -31 27 -45 60 -60 24 -11 52 -20 63 -20 11 0 39
9 63 20 33 15 47 29 60 60 l17 40 153 0 152 0 0 30 0 30 -153 0 -153 0 -17 36
c-18 36 -80 74 -122 74 -11 0 -39 -9 -62 -20z"/>
<path d="M13807 16283 c-21 -20 -4 -30 43 -25 51 5 80 -7 80 -34 0 -10 -14
-14 -49 -14 -63 0 -101 -28 -101 -74 0 -20 8 -40 19 -50 22 -20 78 -24 110 -7
14 8 21 8 21 1 0 -5 9 -10 20 -10 18 0 20 7 20 85 0 78 -2 88 -25 110 -20 20
-34 25 -78 25 -29 0 -57 -3 -60 -7z m123 -126 c0 -35 -32 -59 -72 -55 -26 2
-34 8 -36 27 -5 32 21 51 70 51 33 0 38 -3 38 -23z"/>
<path d="M14050 16180 c0 -91 3 -110 15 -110 12 0 15 14 15 68 0 82 15 116 53
120 48 6 57 -11 57 -104 0 -77 2 -84 20 -84 18 0 20 7 20 73 0 85 16 117 59
117 43 0 51 -16 51 -107 0 -76 2 -83 20 -83 18 0 20 7 20 81 0 77 -10 115 -34
131 -23 16 -83 8 -101 -12 l-18 -20 -14 20 c-18 25 -88 28 -115 3 -17 -15 -18
-15 -18 0 0 10 -7 17 -15 17 -12 0 -15 -19 -15 -110z"/>
<path d="M14450 16180 c0 -103 1 -110 20 -110 18 0 20 7 20 78 0 88 14 112 63
112 37 0 47 -25 47 -114 0 -69 2 -76 20 -76 18 0 20 7 20 79 0 90 12 111 61
111 38 0 49 -27 49 -121 0 -55 3 -69 15 -69 22 0 22 166 -1 198 -20 29 -85 31
-113 3 -19 -19 -20 -19 -37 0 -21 24 -80 25 -106 2 -17 -15 -18 -15 -18 0 0
10 -8 17 -20 17 -19 0 -20 -7 -20 -110z"/>
<path d="M14860 16180 c0 -103 1 -110 20 -110 19 0 20 7 20 110 0 103 -1 110
-20 110 -19 0 -20 -7 -20 -110z"/>
<path d="M14970 16180 c0 -103 1 -110 20 -110 18 0 20 7 20 78 0 87 14 112 61
112 41 0 49 -18 49 -107 0 -76 2 -83 20 -83 19 0 20 7 20 90 0 77 -3 93 -20
110 -25 25 -86 27 -112 3 -17 -15 -18 -15 -18 0 0 10 -8 17 -20 17 -19 0 -20
-7 -20 -110z"/>
<path d="M15251 16266 c-31 -33 -39 -102 -17 -144 27 -53 71 -65 127 -37 l30
16 -7 -28 c-12 -53 -67 -78 -115 -53 -16 9 -19 7 -19 -9 0 -23 19 -31 72 -31
30 0 46 7 69 29 29 29 29 30 29 155 0 105 -2 126 -15 126 -8 0 -15 -7 -15 -17
0 -15 -1 -15 -18 0 -29 26 -94 22 -121 -7z m106 -14 c19 -12 34 -63 28 -94 -7
-30 -39 -58 -67 -58 -50 0 -77 88 -42 138 15 22 57 29 81 14z"/>
<path d="M2757 15786 c-31 -51 -57 -99 -57 -106 0 -7 9 -27 20 -45 l21 -33
-25 -36 c-36 -53 -41 -89 -20 -146 18 -49 18 -51 -4 -95 l-22 -45 155 0 155 0
-25 50 -25 50 22 0 c34 0 560 -70 570 -76 13 -8 9 -26 -17 -81 l-24 -53 155 0
154 0 -25 50 c-23 45 -24 50 -8 50 18 0 586 -91 591 -95 2 -2 -35 -86 -56
-127 -2 -5 66 -8 152 -8 86 0 156 2 156 4 0 2 -12 25 -26 51 l-27 47 44 -7
c24 -4 143 -25 264 -46 121 -22 241 -42 268 -46 26 -3 47 -7 47 -8 0 -2 -13
-33 -30 -69 l-29 -66 154 0 154 0 -19 42 c-10 24 -17 44 -16 45 3 3 93 -15
494 -100 58 -12 100 -26 98 -32 -2 -5 -16 -36 -30 -67 l-26 -58 155 0 154 0
-19 46 c-11 25 -16 43 -11 40 4 -3 70 -19 147 -36 230 -51 438 -102 447 -110
6 -6 -17 -66 -51 -132 -2 -5 66 -8 152 -8 86 0 156 2 156 4 0 3 -10 21 -21 41
-12 20 -20 38 -17 40 5 5 318 -84 427 -122 138 -47 141 -49 141 -89 0 -19 -7
-48 -15 -64 l-16 -30 45 0 c41 0 46 -3 73 -45 15 -25 30 -45 33 -45 3 0 18 20
33 45 29 45 29 45 87 45 53 0 78 -9 304 -117 198 -94 246 -121 243 -135 -3 -9
1 -19 7 -21 7 -3 38 -48 70 -101 32 -53 62 -96 66 -96 4 0 24 27 44 60 21 33
40 60 43 60 3 0 119 -60 257 -134 138 -73 275 -146 304 -160 38 -19 52 -32 48
-42 -5 -14 111 -214 124 -214 3 0 21 25 40 55 19 30 40 55 45 55 6 0 145 -78
310 -174 259 -150 300 -177 297 -195 -3 -20 104 -211 118 -211 3 0 21 25 39
55 18 30 35 55 37 55 2 0 142 -95 311 -211 296 -203 308 -212 305 -241 -2 -22
13 -56 55 -124 31 -52 60 -94 63 -94 3 0 22 27 43 60 l37 60 44 -28 c24 -15
165 -103 314 -197 242 -152 270 -172 265 -192 -3 -16 12 -50 53 -118 32 -52
61 -95 64 -95 3 0 18 21 34 46 l29 46 330 -330 c327 -327 329 -330 313 -353
-9 -13 -16 -30 -16 -38 0 -15 111 -201 120 -201 3 0 19 22 35 50 17 27 33 50
36 50 5 0 536 -486 622 -569 25 -24 26 -29 15 -57 -11 -29 -8 -37 47 -128 33
-53 62 -96 65 -96 3 0 19 22 35 50 17 27 33 50 37 50 3 0 136 -109 295 -241
158 -133 300 -252 315 -264 24 -21 26 -26 16 -53 -10 -27 -7 -37 47 -126 33
-53 62 -96 65 -96 3 0 15 16 28 36 13 20 26 33 29 30 4 -3 156 -227 339 -498
l333 -492 -19 -32 c-11 -17 -20 -37 -20 -44 0 -14 111 -200 120 -200 3 0 16
18 30 40 14 22 28 39 32 38 9 -4 668 -829 668 -837 0 -3 -7 -15 -15 -25 -8
-11 -15 -26 -15 -34 0 -16 111 -202 120 -202 3 0 18 20 33 45 16 25 32 45 35
45 4 0 150 -143 325 -318 l317 -317 -12 -31 c-11 -29 -8 -37 47 -128 33 -53
62 -96 65 -96 9 0 120 185 120 200 0 14 -111 200 -120 200 -3 0 -20 -23 -37
-52 l-32 -51 -325 323 c-310 308 -325 324 -311 344 8 11 15 27 15 35 0 15
-111 201 -120 201 -3 0 -16 -18 -30 -40 -14 -22 -27 -40 -30 -40 -3 0 -156
187 -339 416 l-334 416 16 28 c10 16 17 34 17 40 0 14 -111 200 -120 200 -3 0
-15 -16 -28 -36 -13 -20 -26 -33 -29 -30 -3 3 -156 227 -339 498 l-333 493 20
31 c10 17 19 37 19 44 0 15 -111 200 -120 200 -3 0 -19 -22 -35 -50 -17 -27
-33 -50 -38 -50 -4 0 -148 118 -320 261 -171 144 -313 263 -314 264 -2 1 3 15
9 32 11 28 7 37 -47 127 -33 53 -62 96 -65 96 -3 0 -19 -22 -35 -50 -17 -27
-33 -49 -37 -47 -4 1 -140 126 -303 277 -164 151 -308 284 -321 295 -22 18
-23 23 -13 51 12 29 9 37 -46 128 -33 53 -62 96 -65 96 -3 0 -18 -21 -34 -46
l-29 -46 -330 330 c-328 328 -330 330 -313 353 9 13 16 30 16 38 0 15 -111
201 -120 201 -3 0 -21 -25 -39 -55 -19 -31 -37 -58 -42 -60 -4 -3 -147 83
-318 191 -288 181 -311 197 -305 220 5 17 -8 47 -52 119 -32 52 -61 95 -64 95
-3 0 -21 -25 -39 -55 -21 -35 -39 -54 -47 -51 -8 3 -149 98 -314 212 -294 201
-301 207 -295 235 5 23 -4 46 -51 124 -31 53 -61 94 -66 93 -4 -2 -23 -27 -41
-57 -18 -30 -37 -56 -42 -58 -9 -3 -589 327 -609 347 -5 6 -4 15 3 24 9 11 5
26 -24 72 l-35 59 49 3 c43 3 48 5 44 22 -3 11 -1 20 4 20 13 0 544 -237 555
-248 6 -6 4 -23 -6 -46 -9 -20 -23 -52 -31 -71 l-15 -35 156 0 c138 0 155 2
150 16 -3 9 -3 14 2 12 4 -1 134 -68 289 -146 l282 -144 -25 -56 c-14 -32 -30
-67 -35 -79 l-9 -23 155 0 c133 0 154 2 149 15 -4 8 -1 15 4 15 16 0 582 -307
582 -315 0 -2 -15 -38 -34 -79 l-35 -76 159 0 160 0 182 -125 c101 -68 227
-154 281 -190 53 -36 97 -70 97 -75 0 -5 -15 -43 -34 -84 l-35 -76 154 0 154
0 238 -170 c131 -94 262 -187 291 -206 28 -20 52 -41 51 -47 0 -7 -15 -43 -34
-82 l-33 -70 146 -5 147 -5 145 -116 c80 -63 213 -168 295 -233 83 -65 149
-121 148 -125 -1 -3 -17 -40 -36 -81 l-35 -75 152 -5 151 -5 291 -219 292
-219 -39 -84 -38 -83 107 0 107 -1 346 -521 347 -521 -44 -93 -43 -94 98 0 98
0 338 -606 c185 -333 343 -618 351 -633 13 -26 11 -34 -31 -125 l-44 -96 155
0 155 0 -77 150 c-43 82 -81 150 -85 150 -3 0 -10 -10 -16 -22 -10 -22 -10
-22 -28 12 -10 19 -159 288 -331 598 -173 309 -314 564 -314 567 0 3 9 5 21 5
18 0 12 17 -57 150 -43 83 -80 150 -84 150 -4 0 -12 -12 -19 -27 -12 -26 -22
-13 -336 463 -179 269 -320 491 -315 492 10 4 -138 302 -150 302 -3 0 -15 -18
-26 -41 l-19 -40 -329 248 -329 248 -51 102 c-28 57 -53 103 -56 103 -3 0 -14
-20 -25 -45 l-20 -45 -210 166 c-115 91 -262 206 -325 256 l-116 90 -54 109
c-30 59 -57 108 -60 108 -4 1 -11 -14 -18 -31 -24 -66 -24 -66 -104 -9 -40 29
-190 135 -332 237 l-260 185 -50 94 c-28 52 -53 95 -56 95 -4 0 -14 -16 -23
-36 -13 -26 -23 -35 -35 -32 -10 3 -96 59 -192 124 -96 65 -237 162 -315 214
l-140 96 -50 97 c-27 53 -52 97 -56 97 -3 0 -15 -20 -27 -45 l-22 -45 -47 23
c-59 27 -374 196 -463 247 -36 21 -88 49 -115 63 -46 23 -55 34 -95 111 -25
47 -48 86 -51 86 -3 0 -14 -18 -24 -40 -10 -23 -22 -43 -26 -46 -9 -5 -487
233 -598 297 -54 31 -70 47 -107 110 -24 40 -44 77 -44 81 0 21 -18 3 -38 -37
-12 -25 -27 -45 -34 -45 -7 1 -157 65 -333 143 l-320 142 -45 82 c-25 46 -48
83 -51 83 -3 0 -16 -22 -29 -50 -13 -27 -25 -50 -27 -50 -5 0 -361 135 -528
201 l-150 58 -40 76 c-22 41 -43 75 -46 75 -3 0 -16 -22 -29 -50 -13 -27 -27
-50 -30 -50 -4 0 -151 49 -326 109 l-319 109 -33 53 c-18 30 -42 69 -53 88
l-20 35 -36 -63 c-27 -48 -39 -61 -51 -56 -10 4 -73 22 -142 40 -116 31 -341
106 -425 141 -19 8 -35 21 -35 30 0 9 -10 32 -22 52 -19 31 -20 35 -5 44 10 5
24 22 32 37 l14 28 78 -13 c43 -8 161 -30 263 -50 l186 -35 17 -50 c20 -54 56
-84 113 -95 43 -8 120 27 136 60 14 31 10 31 106 7 43 -11 151 -36 242 -56
212 -46 198 -41 206 -78 10 -50 40 -84 89 -103 39 -14 52 -15 87 -5 23 7 54
26 70 43 33 36 6 38 336 -34 212 -47 232 -53 232 -72 1 -44 43 -100 92 -120
42 -17 52 -18 90 -7 23 7 54 26 70 43 l27 29 265 -82 264 -82 6 -36 c9 -59 39
-97 90 -116 40 -15 52 -16 88 -6 23 7 54 26 69 42 l28 30 218 -66 c337 -102
313 -93 313 -123 0 -49 41 -105 92 -126 42 -17 52 -18 90 -7 23 7 54 26 69 42
l27 29 270 -92 270 -92 6 -35 c15 -91 96 -146 178 -122 22 7 51 23 63 35 l23
23 268 -106 269 -106 6 -35 c14 -88 64 -134 145 -134 40 0 59 5 86 26 l35 27
134 -58 c74 -33 184 -81 244 -108 61 -27 125 -56 143 -63 24 -11 32 -21 32
-40 0 -14 9 -44 20 -68 15 -34 29 -47 66 -63 54 -24 95 -20 146 14 18 13 40
21 48 19 8 -3 123 -51 255 -107 132 -56 248 -104 258 -108 10 -4 17 -17 17
-31 0 -42 31 -105 62 -127 44 -32 99 -36 149 -10 l41 22 284 -188 284 -188 -6
-37 c-9 -59 25 -124 78 -148 54 -25 72 -24 128 1 l45 20 287 -193 288 -193 -6
-37 c-9 -59 25 -124 78 -148 54 -25 72 -24 127 0 l43 20 72 -48 c39 -27 167
-114 283 -192 l213 -144 -6 -36 c-10 -60 25 -126 78 -150 54 -24 72 -24 126 0
33 15 47 29 62 62 25 55 25 79 -1 129 -14 29 -32 46 -62 60 -53 23 -71 23
-124 0 l-41 -19 -171 116 c-94 65 -223 152 -286 195 -115 78 -116 79 -109 112
10 55 -26 121 -78 145 -54 24 -72 24 -124 1 l-42 -19 -291 194 -292 195 7 33
c10 56 -26 122 -78 146 -54 24 -72 24 -126 0 l-43 -19 -285 190 -285 190 7 33
c4 24 0 48 -15 80 -16 38 -29 51 -67 67 -54 24 -95 20 -146 -14 -18 -13 -40
-21 -48 -19 -8 2 -103 42 -210 87 -107 46 -222 95 -255 108 -57 24 -60 27 -65
64 -18 125 -140 181 -236 108 l-36 -27 -76 35 c-43 19 -166 74 -274 122 -192
85 -198 89 -198 117 0 53 -37 108 -87 130 -54 24 -94 19 -149 -18 l-37 -26
-106 41 c-58 22 -178 69 -265 104 l-159 62 -12 47 c-17 67 -38 94 -90 113 -39
15 -52 16 -87 6 -22 -7 -52 -24 -66 -38 l-25 -25 -273 93 c-269 92 -273 94
-278 124 -17 86 -98 140 -178 116 -22 -7 -51 -23 -64 -36 l-23 -23 -270 81
c-268 82 -270 82 -275 112 -17 86 -98 139 -178 116 -22 -7 -51 -24 -65 -37
l-24 -24 -212 66 c-117 36 -236 73 -266 82 -51 16 -54 20 -73 69 -40 108 -154
136 -233 58 l-34 -35 -193 44 c-106 24 -228 52 -270 61 -70 15 -77 18 -83 43
-11 53 -42 89 -89 107 -40 15 -52 16 -88 6 -23 -7 -55 -27 -70 -43 l-29 -31
-257 57 c-141 32 -259 60 -262 62 -2 3 -16 28 -30 57 -21 44 -32 55 -72 71
-42 17 -52 18 -90 7 -23 -7 -54 -26 -69 -42 -15 -16 -36 -29 -46 -29 -11 0
-85 13 -164 29 -79 15 -189 36 -244 46 l-101 18 -18 43 c-41 101 -158 123
-235 45 -34 -35 -38 -37 -81 -29 -25 5 -144 25 -264 46 l-220 37 -25 50 c-21
41 -34 53 -73 69 -41 17 -52 18 -89 7 -40 -12 -82 -44 -90 -69 -3 -10 -62 -4
-244 23 -320 47 -293 40 -312 86 -8 22 -28 48 -43 59 -16 11 -41 40 -57 65
-15 25 -30 45 -33 45 -3 0 -20 -24 -38 -52 -62 -101 -45 -100 -351 -34 -146
31 -276 61 -287 66 -12 4 -48 51 -80 104 -32 53 -61 96 -64 96 -3 0 -26 -34
-51 -75 -24 -41 -51 -74 -59 -74 -8 0 -141 24 -295 53 l-280 52 -60 97 c-33
53 -62 97 -65 97 -3 0 -26 -34 -51 -75 -39 -67 -47 -74 -74 -74 -16 0 -149 19
-295 42 l-264 42 -61 98 c-33 53 -62 97 -65 97 -3 0 -31 -42 -63 -94z m472
-198 c247 -38 275 -44 288 -64 13 -20 12 -26 -2 -54 -15 -28 -20 -31 -48 -27
-18 3 -129 15 -247 27 -265 26 -256 24 -264 56 -4 14 -18 37 -31 50 -28 28
-23 54 9 54 11 0 144 -19 295 -42z m809 -138 c144 -27 267 -52 272 -55 12 -8
13 -32 2 -39 -8 -5 -522 51 -529 58 -2 1 -14 24 -27 49 -23 46 -23 47 -2 42
12 -3 139 -28 284 -55z m-835 -37 c-7 -2 -21 -2 -30 0 -10 3 -4 5 12 5 17 0
24 -2 18 -5z m174 -14 c62 -7 113 -16 113 -21 0 -4 -17 -6 -37 -3 -21 3 -81
12 -133 19 -120 17 -91 20 57 5z m681 -76 c236 -26 243 -28 249 -50 3 -13 4
-25 2 -27 -3 -3 -390 58 -506 79 -37 7 -45 25 -10 25 12 0 131 -12 265 -27z
m657 -8 c55 -14 82 -23 60 -20 -22 2 -70 7 -107 11 -37 4 -73 13 -79 20 -16
20 7 18 126 -11z m164 -91 l234 -29 19 -44 c10 -24 17 -45 15 -47 -2 -3 -135
18 -296 46 -160 27 -294 50 -296 50 -3 0 2 14 11 31 14 27 20 31 47 26 18 -2
137 -17 266 -33z m800 -141 l254 -67 24 -39 c13 -21 22 -41 19 -45 -3 -3 -41
3 -83 12 -43 10 -159 35 -258 57 -286 61 -295 63 -295 71 0 4 5 8 10 8 6 0 20
16 31 35 12 19 26 35 32 35 7 1 126 -30 266 -67z m825 -103 c132 -22 240 -40
241 -40 2 0 5 -12 8 -27 3 -16 17 -45 32 -67 18 -26 23 -42 16 -49 -7 -7 -104
22 -298 87 -158 54 -292 102 -297 106 -5 5 -6 16 -2 25 4 12 14 15 33 11 16
-3 136 -24 267 -46z m-86 -121 c133 -45 241 -83 239 -85 -2 -3 -51 7 -108 20
-57 13 -156 36 -219 51 -160 36 -180 44 -180 64 0 18 8 31 19 31 3 0 115 -36
249 -81z m2000 -673 c4 -5 -17 -66 -23 -66 -5 0 -478 230 -483 234 -2 3 109
-33 248 -79 139 -46 255 -87 258 -89z m750 -280 c39 -15 72 -32 72 -37 0 -5
-13 -37 -30 -72 l-30 -62 45 -3 c43 -3 45 -4 34 -25 -7 -12 -13 -23 -14 -24
-2 -3 -515 264 -583 304 -35 20 -41 27 -31 39 6 8 18 14 25 14 12 0 12 5 -1
30 -8 16 -15 31 -15 33 0 3 102 -35 228 -83 125 -47 260 -99 300 -114z"/>
<path d="M13480 15610 c0 -143 1 -150 20 -150 18 0 20 7 20 65 l0 65 33 0 c45
0 69 -19 97 -79 19 -41 28 -51 47 -51 l24 0 -32 58 c-18 31 -36 62 -42 69 -6
8 -2 21 12 39 29 37 26 70 -8 105 -27 27 -35 29 -100 29 l-71 0 0 -150z m131
110 c13 -7 19 -21 19 -45 0 -40 -20 -55 -74 -55 l-36 0 0 55 0 55 36 0 c19 0
44 -5 55 -10z"/>
<path d="M13777 15753 c-21 -20 -4 -29 48 -25 62 5 85 -7 85 -44 0 -27 -26
-44 -69 -44 -21 0 -31 -5 -31 -15 0 -10 10 -15 33 -15 45 0 77 -25 77 -59 0
-47 -30 -65 -100 -58 -53 4 -61 3 -58 -11 2 -13 16 -18 58 -20 29 -2 64 -1 77
3 63 15 85 95 39 138 -24 22 -24 23 -5 35 26 17 26 75 -1 102 -16 16 -33 20
-83 20 -35 0 -67 -3 -70 -7z"/>
<path d="M14170 15610 l0 -152 84 3 c101 5 126 21 126 80 0 28 -6 42 -25 57
-24 19 -24 20 -5 37 25 23 26 66 1 96 -17 21 -30 24 -100 27 l-81 4 0 -152z
m144 104 c39 -39 7 -84 -60 -84 l-44 0 0 50 0 50 44 0 c27 0 51 -6 60 -16z
m10 -130 c21 -20 20 -53 -1 -76 -11 -13 -30 -18 -65 -18 l-48 0 0 55 0 55 49
0 c32 0 55 -6 65 -16z"/>
<path d="M14460 15610 l0 -150 95 0 c78 0 95 3 95 15 0 12 -15 15 -75 15 l-75
0 0 55 0 55 70 0 c56 0 70 3 70 15 0 12 -14 15 -70 15 l-70 0 0 50 0 50 75 0
c60 0 75 3 75 15 0 12 -17 15 -95 15 l-95 0 0 -150z"/>
<path d="M14720 15610 c0 -143 1 -150 20 -150 18 0 20 7 20 65 l0 65 35 0 c42
0 72 -27 100 -90 12 -26 25 -40 37 -40 10 0 18 2 18 5 0 17 -62 125 -72 125
-6 0 -1 11 12 25 34 37 33 90 -4 121 -23 20 -38 24 -97 24 l-69 0 0 -150z
m131 110 c13 -7 19 -21 19 -45 0 -40 -20 -55 -74 -55 l-36 0 0 55 0 55 36 0
c19 0 44 -5 55 -10z"/>
<path d="M12634 15108 l-51 -83 -171 -3 -172 -2 0 -30 0 -30 172 -2 171 -3 51
-82 c28 -46 53 -83 56 -83 3 0 28 37 56 83 l51 82 171 3 172 2 0 30 0 30 -172
2 -171 3 -51 83 c-28 45 -53 82 -56 82 -3 0 -28 -37 -56 -82z"/>
<path d="M13514 15118 c-39 -37 -57 -92 -47 -148 13 -80 60 -120 141 -120 67
0 102 14 102 40 0 19 -1 20 -30 5 -45 -23 -104 -19 -137 9 -26 22 -28 30 -28
96 0 66 2 74 28 96 33 28 92 32 137 9 29 -15 30 -14 30 5 0 27 -36 40 -106 40
-47 0 -59 -4 -90 -32z"/>
<path d="M14670 15000 l0 -152 84 3 c101 5 126 21 126 80 0 28 -6 42 -25 57
-24 19 -24 20 -5 37 25 23 26 66 1 96 -17 21 -30 24 -100 27 l-81 4 0 -152z
m144 104 c39 -39 7 -84 -60 -84 l-44 0 0 50 0 50 44 0 c27 0 51 -6 60 -16z
m10 -130 c23 -22 20 -60 -6 -78 -12 -9 -42 -16 -65 -16 l-43 0 0 55 0 55 49 0
c32 0 55 -6 65 -16z"/>
<path d="M14960 15000 l0 -150 95 0 c78 0 95 3 95 15 0 12 -15 15 -75 15 l-75
0 0 55 0 55 70 0 c56 0 70 3 70 15 0 12 -14 15 -70 15 l-70 0 0 50 0 50 75 0
c60 0 75 3 75 15 0 12 -17 15 -95 15 l-95 0 0 -150z"/>
<path d="M15220 15000 c0 -143 1 -150 20 -150 18 0 20 7 20 65 l0 65 35 0 c42
0 63 -19 94 -83 15 -32 29 -47 42 -47 25 0 24 4 -16 79 -33 61 -34 66 -18 83
27 30 22 86 -11 114 -23 20 -38 24 -97 24 l-69 0 0 -150z m131 110 c13 -7 19
-21 19 -45 0 -40 -20 -55 -74 -55 l-36 0 0 55 0 55 36 0 c19 0 44 -5 55 -10z"/>
<path d="M13793 15055 c-31 -22 -47 -85 -33 -135 13 -50 42 -70 101 -70 40 0
51 4 73 31 20 24 26 41 26 79 0 38 -6 55 -26 79 -22 27 -33 31 -73 31 -26 0
-56 -7 -68 -15z m111 -37 c36 -51 9 -138 -42 -138 -36 0 -49 10 -62 44 -12 34
-5 79 17 101 22 23 69 19 87 -7z"/>
<path d="M14020 14960 c0 -103 1 -110 20 -110 18 0 20 7 20 73 0 90 15 117 66
117 43 0 54 -24 54 -121 0 -55 3 -69 15 -69 22 0 22 166 -1 198 -19 27 -88 31
-116 5 -17 -15 -18 -15 -18 0 0 10 -8 17 -20 17 -19 0 -20 -7 -20 -110z"/>
<path d="M14281 15018 c12 -29 31 -79 42 -110 18 -51 24 -58 48 -58 27 0 35
15 105 203 4 12 1 17 -14 17 -16 0 -26 -18 -53 -90 -18 -49 -35 -87 -38 -84
-3 2 -19 41 -36 87 -25 64 -37 83 -54 85 l-21 3 21 -53z"/>
<path d="M13851 14550 c-109 -25 -144 -187 -57 -267 31 -29 43 -33 90 -33 70
0 106 13 106 40 0 19 -1 20 -30 5 -45 -23 -104 -19 -137 9 -26 22 -28 30 -28
96 0 66 2 74 28 96 33 28 92 32 137 9 29 -15 30 -14 30 5 0 32 -77 53 -139 40z"/>
<path d="M13480 14400 l0 -150 69 0 c83 0 114 10 136 44 22 34 12 83 -21 98
-24 11 -24 11 -4 30 30 28 27 81 -6 107 -22 17 -41 21 -100 21 l-74 0 0 -150z
m141 110 c12 -7 19 -21 19 -40 0 -36 -23 -50 -79 -50 l-41 0 0 50 0 50 41 0
c22 0 49 -5 60 -10z m10 -130 c13 -7 19 -21 19 -45 0 -42 -20 -55 -84 -55
l-46 0 0 55 0 55 46 0 c25 0 54 -5 65 -10z"/>
<path d="M14050 14400 c0 -143 1 -150 20 -150 18 0 20 7 20 70 l0 70 75 0 75
0 0 -70 c0 -63 2 -70 20 -70 19 0 20 7 20 150 0 143 -1 150 -20 150 -18 0 -20
-7 -20 -65 l0 -65 -75 0 -75 0 0 65 c0 58 -2 65 -20 65 -19 0 -20 -7 -20 -150z"/>
<path d="M14398 14543 c-20 -3 -28 -10 -28 -25 0 -18 4 -19 35 -14 l35 7 0
-116 0 -115 -30 0 c-20 0 -30 -5 -30 -15 0 -12 16 -15 85 -15 69 0 85 3 85 15
0 10 -11 15 -35 15 l-35 0 0 135 0 135 -27 -1 c-16 -1 -40 -4 -55 -6z"/>
<path d="M14630 14480 l0 -71 49 7 c45 6 52 4 76 -20 22 -22 26 -33 21 -59 -9
-48 -31 -60 -99 -54 -50 5 -58 3 -55 -11 3 -13 17 -18 69 -20 78 -3 114 18
125 74 13 70 -34 124 -111 124 -33 0 -35 2 -35 35 l0 35 65 0 c51 0 65 3 65
15 0 12 -16 15 -85 15 l-85 0 0 -70z"/>
<path d="M14890 14535 c0 -12 14 -15 70 -15 39 0 70 -3 70 -7 0 -7 -24 -72
-81 -215 l-19 -48 23 0 c19 0 29 18 75 138 28 75 52 143 52 150 0 9 -26 12
-95 12 -78 0 -95 -3 -95 -15z"/>
<path d="M15290 14400 l0 -150 75 0 c79 0 127 16 139 45 12 33 5 66 -18 90
-14 14 -20 27 -15 31 21 12 30 57 19 85 -15 36 -49 49 -130 49 l-70 0 0 -150z
m141 110 c12 -7 19 -21 19 -40 0 -35 -23 -50 -74 -50 l-36 0 0 50 0 50 36 0
c19 0 44 -5 55 -10z m19 -140 c42 -42 8 -90 -65 -90 l-45 0 0 55 0 55 45 0
c32 0 51 -6 65 -20z"/>
<path d="M15580 14400 l0 -150 100 0 c82 0 100 3 100 15 0 12 -16 15 -80 15
l-80 0 0 55 0 55 75 0 c60 0 75 3 75 15 0 12 -15 15 -75 15 l-75 0 0 50 0 50
75 0 c60 0 75 3 75 15 0 12 -17 15 -95 15 l-95 0 0 -150z"/>
<path d="M15840 14401 l0 -151 25 0 c24 0 25 2 25 65 l0 65 35 0 c29 0 40 -6
65 -42 17 -23 33 -52 36 -65 4 -16 13 -23 30 -23 l24 0 -26 53 c-14 28 -33 60
-41 69 -13 14 -12 19 6 37 27 27 27 81 2 112 -17 21 -30 24 -100 27 l-81 4 0
-151z m140 99 c24 -24 25 -38 4 -68 -11 -16 -25 -22 -55 -22 l-39 0 0 55 0 55
35 0 c22 0 43 -8 55 -20z"/>
<path d="M12655 14480 l-29 -60 -193 0 -193 0 0 -30 0 -30 176 0 175 0 -7 -22
c-3 -13 -15 -40 -25 -60 l-19 -38 155 0 155 0 -30 60 -30 60 175 0 175 0 0 30
0 30 -192 2 -191 3 -31 57 c-17 32 -34 58 -37 58 -3 0 -18 -27 -34 -60z"/>
<path d="M1708 15263 c-27 -7 -22 -23 7 -23 25 0 25 -1 25 -80 0 -73 -2 -80
-20 -80 -11 0 -20 -4 -20 -10 0 -6 27 -10 60 -10 33 0 60 4 60 10 0 6 -11 10
-25 10 -25 0 -25 0 -25 95 0 103 -1 104 -62 88z"/>
<path d="M963 15203 c-15 -3 -23 -12 -23 -24 0 -17 5 -19 35 -13 l35 6 0 -116
0 -116 -35 0 c-24 0 -35 -5 -35 -15 0 -12 17 -15 90 -15 73 0 90 3 90 15 0 10
-11 15 -35 15 l-35 0 0 135 0 135 -32 -1 c-18 -1 -43 -4 -55 -6z"/>
<path d="M1227 15199 c-64 -37 -62 -244 1 -278 36 -19 96 -13 120 12 33 35 48
116 33 179 -16 70 -43 98 -95 98 -23 0 -49 -5 -59 -11z m100 -45 c12 -19 17
-47 17 -94 0 -83 -20 -120 -65 -120 -25 0 -32 6 -45 35 -7 19 -14 57 -14 85 0
28 7 66 14 85 13 29 20 35 45 35 22 0 35 -7 48 -26z"/>
<path d="M1450 15150 c0 -6 37 -10 90 -10 53 0 90 4 90 10 0 6 -37 10 -90 10
-53 0 -90 -4 -90 -10z"/>
<path d="M1698 13583 c-10 -2 -18 -11 -18 -18 0 -11 6 -12 26 -5 14 6 31 10
39 10 16 0 45 -27 45 -41 0 -6 -25 -36 -55 -68 -30 -32 -55 -63 -55 -69 0 -8
24 -12 70 -12 40 0 70 4 70 10 0 6 -23 10 -51 10 l-52 0 47 50 c33 36 46 57
46 79 0 48 -48 71 -112 54z"/>
<path d="M963 13513 c-15 -3 -23 -12 -23 -24 0 -17 5 -19 35 -13 l35 6 0 -116
0 -116 -35 0 c-24 0 -35 -5 -35 -15 0 -12 17 -15 90 -15 73 0 90 3 90 15 0 10
-11 15 -35 15 l-35 0 0 135 0 135 -32 -1 c-18 -1 -43 -4 -55 -6z"/>
<path d="M1227 13509 c-64 -37 -62 -244 1 -278 36 -19 96 -13 120 12 33 35 48
116 33 179 -16 70 -43 98 -95 98 -23 0 -49 -5 -59 -11z m100 -45 c12 -19 17
-47 17 -94 0 -83 -20 -120 -65 -120 -25 0 -32 6 -45 35 -7 19 -14 57 -14 85 0
28 7 66 14 85 13 29 20 35 45 35 22 0 35 -7 48 -26z"/>
<path d="M1450 13470 c0 -6 37 -10 90 -10 53 0 90 4 90 10 0 6 -37 10 -90 10
-53 0 -90 -4 -90 -10z"/>
<path d="M1687 11893 c-16 -15 -5 -21 31 -16 27 4 42 1 51 -11 18 -21 -2 -46
-35 -46 -13 0 -24 -4 -24 -10 0 -5 10 -10 23 -10 29 0 47 -18 47 -47 0 -29
-33 -46 -76 -38 -19 3 -34 2 -34 -3 0 -25 85 -30 118 -6 26 18 29 59 7 84 -14
15 -14 18 0 30 36 30 -3 80 -63 80 -21 0 -42 -3 -45 -7z"/>
<path d="M953 11823 c-15 -3 -23 -12 -23 -24 0 -17 5 -19 35 -13 l35 6 0 -116
0 -116 -35 0 c-24 0 -35 -5 -35 -15 0 -12 17 -15 90 -15 73 0 90 3 90 15 0 10
-11 15 -35 15 l-35 0 0 135 0 135 -32 -1 c-18 -1 -43 -4 -55 -6z"/>
<path d="M1217 11819 c-64 -37 -62 -244 1 -278 36 -19 96 -13 120 12 33 35 48
116 33 179 -16 70 -43 98 -95 98 -23 0 -49 -5 -59 -11z m100 -45 c12 -19 17
-47 17 -94 0 -83 -20 -120 -65 -120 -25 0 -32 6 -45 35 -7 19 -14 57 -14 85 0
28 7 66 14 85 13 29 20 35 45 35 22 0 35 -7 48 -26z"/>
<path d="M1440 11780 c0 -6 37 -10 90 -10 53 0 90 4 90 10 0 6 -37 10 -90 10
-53 0 -90 -4 -90 -10z"/>
<path d="M1706 10140 c-25 -38 -46 -74 -46 -80 0 -5 23 -10 50 -10 47 0 50 -2
50 -25 0 -16 6 -25 15 -25 9 0 15 9 15 25 0 16 6 25 15 25 8 0 15 5 15 10 0 6
-7 10 -15 10 -12 0 -15 14 -15 70 0 61 -2 70 -19 70 -11 0 -35 -25 -65 -70z
m54 -15 l0 -55 -35 0 c-19 0 -35 2 -35 5 0 6 64 105 68 105 1 0 2 -25 2 -55z"/>
<path d="M953 10143 c-15 -3 -23 -12 -23 -24 0 -17 5 -19 35 -13 l35 6 0 -116
0 -116 -35 0 c-24 0 -35 -5 -35 -15 0 -12 17 -15 90 -15 73 0 90 3 90 15 0 10
-11 15 -35 15 l-35 0 0 135 0 135 -32 -1 c-18 -1 -43 -4 -55 -6z"/>
<path d="M1217 10139 c-64 -37 -62 -244 1 -278 36 -19 96 -13 120 12 33 35 48
116 33 179 -16 70 -43 98 -95 98 -23 0 -49 -5 -59 -11z m100 -45 c12 -19 17
-47 17 -94 0 -83 -20 -120 -65 -120 -25 0 -32 6 -45 35 -7 19 -14 57 -14 85 0
28 7 66 14 85 13 29 20 35 45 35 22 0 35 -7 48 -26z"/>
<path d="M1440 10090 c0 -6 37 -10 90 -10 53 0 90 4 90 10 0 6 -37 10 -90 10
-53 0 -90 -4 -90 -10z"/>
<path d="M581 9470 c-29 -16 -60 -35 -67 -41 -10 -8 -20 -6 -40 10 -30 24 -52
26 -87 10 -34 -16 -47 -49 -47 -124 l0 -65 150 0 c143 0 150 1 150 20 0 18 -7
20 -65 20 l-65 0 0 33 c0 45 19 69 79 97 40 18 51 28 51 47 0 13 -1 23 -2 23
-2 0 -27 -14 -57 -30z m-111 -79 c5 -11 10 -36 10 -55 l0 -36 -55 0 -55 0 0
36 c0 54 15 74 55 74 24 0 38 -6 45 -19z"/>
<path d="M340 9095 l0 -95 150 0 150 0 0 95 c0 78 -3 95 -15 95 -12 0 -15 -15
-15 -75 l0 -75 -55 0 -55 0 0 70 c0 56 -3 70 -15 70 -12 0 -15 -14 -15 -70 l0
-70 -50 0 -50 0 0 75 c0 60 -3 75 -15 75 -12 0 -15 -17 -15 -95z"/>
<path d="M523 8928 c-13 -6 -25 -20 -29 -30 -6 -19 -6 -19 -25 1 -29 31 -82
28 -108 -5 -17 -22 -21 -41 -21 -100 l0 -74 151 0 151 0 -3 86 c-4 79 -6 87
-32 110 -30 26 -50 29 -84 12z m77 -57 c5 -11 10 -40 10 -65 l0 -46 -55 0 -55
0 0 46 c0 64 13 84 55 84 24 0 38 -6 45 -19z m-140 -10 c5 -11 10 -38 10 -60
l0 -41 -50 0 -50 0 0 41 c0 56 14 79 50 79 19 0 33 -7 40 -19z"/>
<path d="M1690 8471 l0 -50 33 6 c56 9 88 -44 50 -82 -12 -13 -26 -15 -55 -11
-38 6 -53 -6 -22 -18 55 -21 124 14 124 64 0 33 -40 70 -76 70 -19 0 -24 5
-24 25 0 23 4 25 40 25 22 0 40 5 40 10 0 6 -25 10 -55 10 l-55 0 0 -49z"/>
<path d="M963 8453 c-15 -3 -23 -12 -23 -24 0 -17 5 -19 35 -13 l35 6 0 -116
0 -116 -35 0 c-24 0 -35 -5 -35 -15 0 -12 17 -15 90 -15 73 0 90 3 90 15 0 10
-11 15 -35 15 l-35 0 0 135 0 135 -32 -1 c-18 -1 -43 -4 -55 -6z"/>
<path d="M1227 8449 c-64 -37 -62 -244 1 -278 36 -19 96 -13 120 12 33 35 48
116 33 179 -16 70 -43 98 -95 98 -23 0 -49 -5 -59 -11z m100 -45 c12 -19 17
-47 17 -94 0 -83 -20 -120 -65 -120 -25 0 -32 6 -45 35 -7 19 -14 57 -14 85 0
28 7 66 14 85 13 29 20 35 45 35 22 0 35 -7 48 -26z"/>
<path d="M1450 8400 c0 -6 37 -10 90 -10 53 0 90 4 90 10 0 6 -37 10 -90 10
-53 0 -90 -4 -90 -10z"/>
<path d="M1705 6818 c-53 -46 -40 -169 19 -184 37 -9 57 -2 79 28 22 29 18 65
-9 92 -18 19 -65 21 -82 4 -9 -9 -12 -8 -12 5 0 31 39 60 72 53 21 -4 28 -2
26 7 -8 23 -64 20 -93 -5z m75 -89 c16 -29 5 -66 -22 -75 -44 -13 -73 63 -34
88 20 14 45 8 56 -13z"/>
<path d="M953 6763 c-15 -3 -23 -12 -23 -24 0 -17 5 -19 35 -13 l35 6 0 -116
0 -116 -35 0 c-24 0 -35 -5 -35 -15 0 -12 17 -15 90 -15 73 0 90 3 90 15 0 10
-11 15 -35 15 l-35 0 0 135 0 135 -32 -1 c-18 -1 -43 -4 -55 -6z"/>
<path d="M1217 6759 c-64 -37 -62 -244 1 -278 36 -19 96 -13 120 12 33 35 48
116 33 179 -16 70 -43 98 -95 98 -23 0 -49 -5 -59 -11z m100 -45 c12 -19 17
-47 17 -94 0 -83 -20 -120 -65 -120 -25 0 -32 6 -45 35 -7 19 -14 57 -14 85 0
28 7 66 14 85 13 29 20 35 45 35 22 0 35 -7 48 -26z"/>
<path d="M1440 6720 c0 -6 37 -10 90 -10 53 0 90 4 90 10 0 6 -37 10 -90 10
-53 0 -90 -4 -90 -10z"/>
<path d="M1680 5130 c0 -5 23 -10 50 -10 28 0 50 -3 50 -8 0 -4 -13 -43 -30
-85 -34 -88 -35 -97 -17 -97 10 0 42 76 85 198 3 9 -14 12 -67 12 -41 0 -71
-4 -71 -10z"/>
<path d="M963 5073 c-15 -3 -23 -12 -23 -24 0 -17 5 -19 35 -13 l35 6 0 -116
0 -116 -35 0 c-24 0 -35 -5 -35 -15 0 -12 17 -15 90 -15 73 0 90 3 90 15 0 10
-11 15 -35 15 l-35 0 0 135 0 135 -32 -1 c-18 -1 -43 -4 -55 -6z"/>
<path d="M1227 5069 c-64 -37 -62 -244 1 -278 36 -19 96 -13 120 12 33 35 48
116 33 179 -16 70 -43 98 -95 98 -23 0 -49 -5 -59 -11z m100 -45 c12 -19 17
-47 17 -94 0 -83 -20 -120 -65 -120 -25 0 -32 6 -45 35 -7 19 -14 57 -14 85 0
28 7 66 14 85 13 29 20 35 45 35 22 0 35 -7 48 -26z"/>
<path d="M1450 5020 c0 -6 37 -10 90 -10 53 0 90 4 90 10 0 6 -37 10 -90 10
-53 0 -90 -4 -90 -10z"/>
<path d="M1698 3449 c-23 -13 -24 -67 -2 -76 13 -5 12 -8 -5 -25 -44 -40 -12
-98 54 -98 60 0 89 49 55 92 -17 22 -17 27 -5 32 21 8 19 49 -3 69 -21 19 -68
22 -94 6z m66 -15 c9 -3 16 -16 16 -29 0 -37 -52 -49 -70 -16 -7 15 -6 23 6
35 17 18 24 19 48 10z m16 -99 c17 -20 3 -54 -26 -61 -42 -11 -72 34 -42 64
16 16 53 15 68 -3z"/>
<path d="M953 3383 c-15 -3 -23 -12 -23 -24 0 -17 5 -19 35 -13 l35 6 0 -116
0 -116 -35 0 c-24 0 -35 -5 -35 -15 0 -12 17 -15 90 -15 73 0 90 3 90 15 0 10
-11 15 -35 15 l-35 0 0 135 0 135 -32 -1 c-18 -1 -43 -4 -55 -6z"/>
<path d="M1217 3379 c-64 -37 -62 -244 1 -278 36 -19 96 -13 120 12 33 35 48
116 33 179 -16 70 -43 98 -95 98 -23 0 -49 -5 -59 -11z m100 -45 c12 -19 17
-47 17 -94 0 -83 -20 -120 -65 -120 -25 0 -32 6 -45 35 -7 19 -14 57 -14 85 0
28 7 66 14 85 13 29 20 35 45 35 22 0 35 -7 48 -26z"/>
<path d="M1440 3340 c0 -6 37 -10 90 -10 53 0 90 4 90 10 0 6 -37 10 -90 10
-53 0 -90 -4 -90 -10z"/>
<path d="M1690 1750 c-25 -25 -26 -72 -2 -93 22 -20 72 -22 91 -4 11 10 12 7
6 -13 -13 -45 -36 -62 -73 -56 -23 3 -32 1 -29 -7 2 -7 20 -13 40 -15 28 -2
42 3 62 22 24 25 30 50 26 111 -5 65 -78 98 -121 55z m80 -14 c28 -35 -11 -93
-47 -70 -36 22 -23 84 17 84 10 0 23 -7 30 -14z"/>
<path d="M953 1693 c-15 -3 -23 -12 -23 -24 0 -17 5 -19 35 -13 l35 6 0 -116
0 -116 -35 0 c-24 0 -35 -5 -35 -15 0 -12 17 -15 90 -15 73 0 90 3 90 15 0 10
-11 15 -35 15 l-35 0 0 135 0 135 -32 -1 c-18 -1 -43 -4 -55 -6z"/>
<path d="M1217 1689 c-64 -37 -62 -244 1 -278 36 -19 96 -13 120 12 33 35 48
116 33 179 -16 70 -43 98 -95 98 -23 0 -49 -5 -59 -11z m100 -45 c12 -19 17
-47 17 -94 0 -83 -20 -120 -65 -120 -25 0 -32 6 -45 35 -7 19 -14 57 -14 85 0
28 7 66 14 85 13 29 20 35 45 35 22 0 35 -7 48 -26z"/>
<path d="M1440 1650 c0 -6 37 -10 90 -10 53 0 90 4 90 10 0 6 -37 10 -90 10
-53 0 -90 -4 -90 -10z"/>
<path d="M4563 1165 c-35 -52 -63 -104 -63 -115 0 -18 7 -20 70 -20 l70 0 0
-35 c0 -28 4 -35 20 -35 16 0 20 7 20 35 0 28 4 35 20 35 11 0 20 7 20 15 0 8
-9 15 -20 15 -19 0 -20 7 -20 100 l0 100 -27 0 c-24 0 -37 -14 -90 -95z m77
-25 l0 -80 -50 0 c-27 0 -50 3 -50 6 0 8 92 154 97 154 2 0 3 -36 3 -80z"/>
<path d="M7788 1253 c-10 -2 -18 -14 -18 -25 0 -15 4 -18 18 -12 9 4 35 9 57
12 31 3 45 -1 59 -17 28 -31 13 -66 -65 -146 -95 -98 -93 -105 26 -105 78 0
95 3 95 15 0 12 -15 15 -72 15 l-72 0 61 63 c33 34 66 72 72 84 18 35 13 72
-14 98 -20 21 -33 25 -77 24 -29 -1 -61 -3 -70 -6z"/>
<path d="M10907 1249 c-64 -37 -62 -244 1 -278 36 -19 96 -13 120 12 33 35 48
116 33 179 -16 70 -43 98 -95 98 -23 0 -49 -5 -59 -11z m100 -45 c12 -19 17
-47 17 -94 0 -83 -20 -120 -65 -120 -25 0 -32 6 -45 35 -7 19 -14 57 -14 85 0
28 7 66 14 85 13 29 20 35 45 35 22 0 35 -7 48 -26z"/>
<path d="M14128 1253 c-10 -2 -18 -14 -18 -25 0 -15 4 -18 18 -13 58 25 119
16 128 -19 8 -34 -15 -72 -85 -141 -87 -85 -84 -95 34 -95 78 0 95 3 95 15 0
12 -15 15 -72 15 l-72 0 61 63 c33 34 66 72 72 84 18 35 13 72 -14 98 -20 21
-33 25 -77 24 -29 -1 -61 -3 -70 -6z"/>
<path d="M4180 1095 c0 -13 22 -15 135 -15 113 0 135 2 135 15 0 13 -22 15
-135 15 -113 0 -135 -2 -135 -15z"/>
<path d="M7440 1095 c0 -13 22 -15 135 -15 113 0 135 2 135 15 0 13 -22 15
-135 15 -113 0 -135 -2 -135 -15z"/>
<path d="M9866 641 c-35 -79 -36 -174 -2 -247 24 -51 42 -71 53 -60 3 3 -1 23
-11 43 -39 90 -38 202 2 285 18 35 18 38 2 38 -11 0 -26 -20 -44 -59z"/>
<path d="M10150 638 c0 -59 -1 -60 -18 -45 -23 21 -81 22 -109 2 -31 -22 -47
-85 -33 -135 6 -21 20 -46 33 -55 28 -20 86 -19 109 2 17 15 18 15 18 0 0 -10
8 -17 20 -17 19 0 20 7 20 155 0 148 -1 155 -20 155 -18 0 -20 -7 -20 -62z
m-16 -80 c9 -12 16 -38 16 -58 0 -51 -24 -80 -65 -80 -28 0 -37 6 -50 30 -8
16 -15 38 -15 50 0 12 7 34 15 50 13 24 22 30 50 30 24 0 39 -7 49 -22z"/>
<path d="M10555 683 c52 -119 56 -207 16 -298 -25 -57 -19 -71 15 -32 34 39
58 129 51 192 -6 62 -50 155 -73 155 -12 0 -14 -5 -9 -17z"/>
<path d="M8857 670 c-21 -17 -27 -30 -27 -59 0 -47 19 -66 85 -82 81 -19 107
-56 66 -93 -15 -14 -32 -17 -68 -14 -26 3 -56 8 -65 12 -14 6 -18 4 -18 -12 0
-24 25 -32 103 -32 72 0 107 28 107 85 0 44 -25 71 -82 85 -72 18 -88 28 -88
54 0 38 23 49 91 43 52 -4 60 -3 57 11 -3 13 -17 18 -69 20 -54 2 -70 -1 -92
-18z"/>
<path d="M9110 541 c0 -144 1 -151 20 -151 18 0 20 8 22 118 l3 117 63 -117
c58 -110 65 -118 92 -118 l30 0 0 150 c0 143 -1 150 -20 150 -19 0 -20 -7 -20
-122 0 -67 -3 -118 -7 -114 -5 4 -35 58 -69 119 -51 95 -65 112 -87 115 l-27
3 0 -150z"/>
<path d="M9420 541 c0 -144 1 -151 20 -151 18 0 20 7 20 65 l0 65 29 0 c48 0
61 -10 92 -71 21 -42 35 -59 49 -59 11 0 20 2 20 5 0 13 -44 92 -63 113 l-21
22 22 16 c17 12 22 25 22 58 0 63 -23 80 -116 84 l-74 4 0 -151z m132 102 c42
-38 11 -93 -53 -93 l-39 0 0 55 0 55 37 0 c20 0 45 -7 55 -17z"/>
<path d="M10270 541 l0 -151 70 0 c74 0 123 17 134 45 13 35 6 74 -18 92 -23
19 -23 19 -5 42 24 30 24 62 0 92 -17 21 -30 24 -100 27 l-81 4 0 -151z m142
102 c40 -36 8 -83 -59 -83 l-43 0 0 50 0 50 42 0 c24 0 49 -7 60 -17z m10
-130 c45 -40 6 -93 -69 -93 l-43 0 0 55 0 55 47 0 c29 0 53 -6 65 -17z"/>
</g>
</svg>
