<?xml version="1.0" standalone="no"?>
<!DOCTYPE svg PUBLIC "-//W3C//DTD SVG 20010904//EN"
 "http://www.w3.org/TR/2001/REC-SVG-20010904/DTD/svg10.dtd">
<svg version="1.0" xmlns="http://www.w3.org/2000/svg"
 width="1764.000000pt" height="1768.000000pt" viewBox="0 0 1764.000000 1768.000000"
 preserveAspectRatio="xMidYMid meet">

<g transform="translate(0.000000,1768.000000) scale(0.100000,-0.100000)"
fill="#000000" stroke="none">
<path d="M8310 17190 l0 -182 100 4 c93 3 101 5 127 31 40 40 39 99 -3 136
l-30 27 23 18 c33 25 32 84 -3 117 -23 21 -36 24 -120 27 l-94 4 0 -182z m171
130 c23 -13 26 -62 3 -84 -10 -11 -34 -16 -70 -16 l-54 0 0 55 0 55 51 0 c28
0 59 -5 70 -10z m13 -156 c9 -8 16 -31 16 -49 0 -50 -21 -65 -91 -65 l-59 0 0
65 0 65 59 0 c41 0 65 -5 75 -16z"/>
<path d="M8650 17190 l0 -180 120 0 c113 0 120 1 120 20 0 19 -7 20 -95 20
l-95 0 0 65 0 65 85 0 c78 0 85 2 85 20 0 18 -7 20 -85 20 l-85 0 0 55 0 55
90 0 c83 0 90 1 90 20 0 19 -7 20 -115 20 l-115 0 0 -180z"/>
<path d="M8970 17190 l0 -180 25 0 c24 0 25 2 25 75 l0 75 44 0 c39 0 48 -4
69 -32 14 -18 34 -52 46 -75 17 -33 27 -43 46 -43 l25 0 -34 68 c-19 38 -41
74 -50 81 -14 12 -13 16 9 43 16 19 25 42 25 64 0 76 -42 104 -155 104 l-75 0
0 -180z m162 123 c24 -21 23 -68 -2 -93 -14 -14 -33 -20 -65 -20 l-45 0 0 65
0 65 47 0 c29 0 53 -6 65 -17z"/>
<path d="M10250 17190 l0 -180 85 0 c132 0 175 26 175 105 0 28 -7 44 -30 65
-24 22 -27 29 -15 34 22 8 37 54 29 88 -10 49 -54 68 -156 68 l-88 0 0 -180z
m184 118 c21 -30 20 -44 -4 -68 -15 -15 -33 -20 -75 -20 l-55 0 0 55 0 55 59
0 c51 0 62 -3 75 -22z m6 -148 c11 -11 20 -31 20 -45 0 -44 -32 -65 -100 -65
l-60 0 0 65 0 65 60 0 c47 0 64 -4 80 -20z"/>
<path d="M10619 17355 c-54 -29 -62 -119 -14 -151 13 -8 51 -23 86 -32 48 -13
67 -23 78 -43 34 -62 -49 -106 -140 -75 -57 20 -59 20 -59 -4 0 -28 36 -40
116 -40 84 0 120 18 135 68 9 31 8 45 -4 74 -15 37 -38 49 -144 77 -33 9 -44
18 -49 37 -14 55 51 82 149 60 30 -7 37 -5 37 8 0 8 -9 20 -19 26 -28 15 -142
12 -172 -5z"/>
<path d="M10960 17347 c-53 -35 -75 -81 -75 -157 0 -76 22 -122 75 -157 63
-43 220 -24 220 27 0 24 3 24 -54 -1 -34 -15 -58 -19 -84 -14 -72 12 -102 54
-102 145 0 91 30 133 102 145 26 5 50 1 84 -14 57 -25 54 -25 54 -1 0 51 -157
70 -220 27z"/>
<path d="M9490 17250 c-51 -54 -51 -156 0 -210 24 -26 35 -30 82 -30 85 0 128
45 128 135 0 90 -43 135 -128 135 -47 0 -58 -4 -82 -30z m143 -32 c19 -23 24
-107 6 -139 -25 -48 -105 -44 -128 7 -14 32 -14 86 0 118 22 48 86 56 122 14z"/>
<path d="M9770 17145 l0 -135 25 0 c25 0 25 0 25 94 0 77 3 98 19 117 21 26
82 32 104 11 7 -8 13 -51 15 -117 4 -95 6 -105 23 -105 18 0 19 8 19 110 0
104 -1 112 -25 135 -32 33 -101 35 -133 5 l-22 -21 0 21 c0 15 -7 20 -25 20
l-25 0 0 -135z"/>
<path d="M2110 16340 l0 -420 -70 0 c-56 0 -70 -3 -70 -15 0 -12 14 -15 70
-15 l70 0 0 -94 0 -95 -32 -3 c-18 -2 -33 -7 -33 -13 0 -5 15 -11 33 -13 l32
-3 0 -109 0 -109 -32 -3 c-18 -2 -33 -7 -33 -13 0 -5 15 -11 33 -13 l32 -3 0
-119 0 -119 -32 -3 c-18 -2 -33 -7 -33 -13 0 -5 15 -11 33 -13 l32 -3 0 -144
0 -144 -32 -3 c-18 -2 -33 -7 -33 -13 0 -5 15 -11 33 -13 l32 -3 0 -174 0
-174 -32 -3 c-18 -2 -33 -7 -33 -13 0 -5 15 -11 33 -13 l32 -3 0 -219 0 -219
-32 -3 c-18 -2 -33 -7 -33 -13 0 -5 15 -11 33 -13 l32 -3 0 -279 0 -279 -32
-3 c-18 -2 -33 -7 -33 -13 0 -5 15 -11 33 -13 l32 -3 0 -409 0 -409 -32 -3
c-18 -2 -33 -7 -33 -13 0 -5 15 -11 33 -13 l32 -3 0 -705 0 -704 -70 0 c-56 0
-70 -3 -70 -15 0 -12 14 -15 70 -15 l70 0 0 -89 0 -90 -32 -3 c-18 -2 -33 -7
-33 -13 0 -5 15 -11 33 -13 l32 -3 0 -109 0 -109 -32 -3 c-18 -2 -33 -7 -33
-13 0 -5 15 -11 33 -13 l32 -3 0 -124 0 -124 -32 -3 c-18 -2 -33 -7 -33 -13 0
-5 15 -11 33 -13 l32 -3 0 -144 0 -144 -32 -3 c-18 -2 -33 -7 -33 -13 0 -5 15
-11 33 -13 l32 -3 0 -174 0 -174 -32 -3 c-18 -2 -33 -7 -33 -13 0 -5 15 -11
33 -13 l32 -3 0 -214 0 -214 -32 -3 c-18 -2 -33 -7 -33 -13 0 -5 15 -11 33
-13 l32 -3 0 -284 0 -284 -32 -3 c-18 -2 -33 -7 -33 -13 0 -5 15 -11 33 -13
l32 -3 0 -404 0 -404 -32 -3 c-18 -2 -33 -7 -33 -13 0 -5 15 -11 33 -13 l32
-3 0 -705 0 -704 -70 0 c-56 0 -70 -3 -70 -15 0 -12 14 -15 70 -15 l70 0 0
-94 0 -95 -32 -3 c-18 -2 -33 -7 -33 -13 0 -5 15 -11 33 -13 l32 -3 0 -104 0
-104 -32 -3 c-18 -2 -33 -7 -33 -13 0 -5 15 -11 33 -13 l32 -3 0 -124 0 -124
-32 -3 c-18 -2 -33 -7 -33 -13 0 -5 15 -11 33 -13 l32 -3 0 -144 0 -144 -32
-3 c-18 -2 -33 -7 -33 -13 0 -5 15 -11 33 -13 l32 -3 0 -174 0 -174 -32 -3
c-18 -2 -33 -7 -33 -13 0 -5 15 -11 33 -13 l32 -3 0 -214 0 -214 -32 -3 c-18
-2 -33 -7 -33 -13 0 -5 15 -11 33 -13 l32 -3 0 -284 0 -284 -32 -3 c-18 -2
-33 -7 -33 -13 0 -5 15 -11 33 -13 l32 -3 0 -404 0 -404 -32 -3 c-18 -2 -33
-7 -33 -13 0 -5 15 -11 33 -13 l32 -3 0 -705 0 -704 -70 0 c-56 0 -70 -3 -70
-15 0 -13 53 -15 415 -15 l415 0 0 -70 c0 -56 3 -70 15 -70 12 0 15 14 15 70
l0 70 910 0 910 0 0 -70 c0 -56 3 -70 15 -70 12 0 15 14 15 70 l0 70 905 0
905 0 0 -70 c0 -56 3 -70 15 -70 12 0 15 14 15 70 l0 70 910 0 910 0 0 -70 c0
-56 3 -70 15 -70 12 0 15 14 15 70 l0 70 905 0 905 0 0 -70 c0 -56 3 -70 15
-70 12 0 15 14 15 70 l0 70 910 0 910 0 0 -70 c0 -56 3 -70 15 -70 12 0 15 14
15 70 l0 70 905 0 905 0 0 -70 c0 -56 3 -70 15 -70 12 0 15 14 15 70 l0 70
910 0 910 0 0 -70 c0 -56 3 -70 15 -70 12 0 15 14 15 70 l0 70 810 0 810 0 0
7610 0 7610 -7630 0 -7630 0 0 -420z m15230 -7190 l0 -7580 -7600 0 -7600 0 0
7580 0 7580 7600 0 7600 0 0 -7580z"/>
<path d="M16608 15976 c-18 -36 -37 -66 -43 -66 -5 0 -174 -18 -375 -40 -201
-22 -372 -40 -381 -40 -9 0 -27 24 -44 60 -16 33 -31 60 -35 60 -3 0 -21 -31
-40 -70 -19 -38 -41 -72 -49 -74 -85 -23 -704 -126 -756 -126 -8 0 -27 24 -42
55 -15 30 -30 55 -33 55 -3 0 -21 -32 -40 -70 -26 -54 -40 -72 -60 -76 -14 -3
-38 -10 -55 -14 -107 -31 -634 -120 -641 -109 -3 5 -25 9 -50 9 -41 0 -46 3
-61 35 -9 19 -20 35 -23 35 -3 0 -14 -16 -23 -35 -15 -31 -21 -35 -56 -35 -36
0 -40 -3 -51 -34 -10 -31 -15 -35 -68 -45 -31 -5 -174 -34 -318 -64 l-261 -54
-30 33 c-29 33 -33 34 -104 34 -89 0 -110 -12 -134 -75 -10 -24 -25 -47 -34
-49 -16 -5 -436 -84 -559 -106 -63 -11 -63 -11 -91 19 -15 16 -46 35 -69 42
-75 22 -157 -26 -176 -103 -3 -16 -11 -28 -16 -28 -5 0 -149 -27 -320 -60
l-312 -60 -27 29 c-15 16 -46 35 -69 42 -38 11 -48 10 -90 -7 -39 -16 -51 -28
-71 -67 -14 -29 -32 -49 -45 -52 -23 -5 -537 -93 -598 -102 -30 -4 -38 -2 -47
16 -9 16 -21 21 -52 21 -32 0 -41 4 -51 25 -6 14 -14 25 -18 25 -4 0 -12 -11
-18 -25 -9 -20 -19 -25 -47 -25 -33 0 -38 -4 -56 -44 -14 -33 -26 -46 -47 -50
-15 -3 -144 -24 -287 -46 -143 -22 -278 -45 -300 -50 -106 -25 -98 -27 -130
40 -16 33 -31 60 -35 60 -3 0 -21 -31 -40 -70 -33 -68 -34 -69 -79 -75 -25 -4
-84 -13 -131 -21 -145 -23 -550 -84 -564 -84 -7 0 -33 32 -57 70 -24 39 -46
70 -49 70 -3 0 -31 -40 -62 -89 l-56 -89 -59 -6 c-89 -11 -627 -45 -634 -40
-3 2 -28 39 -54 84 -27 44 -52 80 -55 80 -3 0 -30 -40 -60 -90 -46 -76 -60
-91 -85 -95 -24 -3 -284 -23 -644 -48 -32 -2 -36 2 -85 81 -28 45 -53 82 -56
82 -3 0 -32 -43 -64 -96 -32 -53 -68 -100 -80 -104 -11 -5 -160 -37 -331 -70
-170 -34 -317 -63 -326 -66 -11 -3 -30 19 -64 76 -27 44 -52 80 -55 80 -3 0
-34 -47 -69 -104 l-63 -104 -61 -15 c-165 -41 -629 -148 -631 -145 -1 2 -22
36 -47 76 -24 39 -46 72 -49 72 -14 0 -122 -192 -117 -209 4 -16 -52 -46 -355
-192 -198 -96 -363 -175 -366 -176 -4 -2 -25 26 -47 62 -22 36 -42 65 -45 65
-3 0 -32 -43 -65 -96 -53 -88 -57 -99 -48 -125 l11 -29 -369 -290 c-203 -159
-371 -290 -373 -290 -2 0 -19 25 -37 55 -18 30 -36 55 -39 55 -9 0 -120 -185
-120 -200 0 -7 14 -35 31 -63 l31 -50 -25 -21 c-38 -32 -60 -83 -53 -124 3
-19 1 -43 -5 -53 -8 -16 -6 -19 10 -19 11 0 23 -5 27 -11 3 -6 27 -20 51 -31
54 -24 94 -19 147 17 20 14 44 25 52 25 9 0 12 5 8 12 -4 6 -8 41 -9 77 l-2
66 336 226 336 226 30 -18 c49 -30 88 -33 139 -11 33 15 50 31 63 56 9 20 20
36 24 36 4 0 3 16 -1 35 -10 43 -42 25 355 202 231 103 303 132 315 124 39
-28 92 -51 115 -51 38 0 104 37 117 65 6 14 16 25 22 25 7 0 10 15 8 39 -4 38
-3 39 45 55 88 32 577 196 580 196 2 0 1 -4 -2 -10 -3 -5 2 -10 12 -10 10 0
40 -11 67 -25 27 -14 59 -25 71 -25 12 0 44 11 71 25 27 14 57 25 67 25 15 0
16 3 7 20 -6 11 -8 36 -4 55 7 41 -13 33 304 114 129 33 259 67 288 75 43 12
52 12 52 1 0 -8 -4 -17 -10 -20 -19 -12 -10 -25 18 -25 16 0 50 -7 77 -16 44
-16 52 -16 100 0 28 9 64 16 78 16 30 0 32 3 15 29 -8 14 -9 31 -2 57 l9 38
315 65 c216 44 319 70 327 80 21 29 24 4 4 -40 l-20 -44 151 -3 c83 -1 153 -1
155 2 2 2 -5 22 -16 45 -25 48 -25 51 -6 51 8 0 15 6 15 14 0 16 10 18 275 66
227 42 379 67 383 65 1 -1 -7 -22 -17 -46 l-20 -44 54 -3 c48 -3 56 -6 72 -32
9 -17 20 -30 23 -30 3 0 14 13 23 30 16 26 23 29 77 32 l60 3 -24 52 -25 52
42 5 c23 3 181 7 351 8 l309 3 51 -82 c28 -46 53 -83 56 -83 3 0 28 36 54 80
27 44 54 84 60 90 8 6 148 11 356 12 l343 3 51 -82 c28 -46 53 -83 56 -83 3 0
28 36 55 80 26 45 52 83 57 86 5 4 166 3 357 -1 l347 -8 54 -88 c30 -49 57
-89 60 -89 3 0 28 37 56 83 l51 82 337 3 c201 1 344 -2 355 -7 10 -6 39 -46
66 -90 27 -45 52 -81 55 -81 3 0 28 36 55 80 26 45 51 83 55 85 12 8 664 -16
685 -25 12 -4 43 -44 70 -89 27 -44 52 -81 55 -81 3 0 28 36 54 80 58 95 10
88 411 60 154 -11 294 -20 310 -20 27 0 35 -9 85 -90 30 -50 57 -90 60 -90 3
0 28 36 54 80 58 95 3 88 445 60 226 -14 317 -23 323 -32 4 -7 29 -48 55 -90
26 -43 50 -78 53 -78 3 0 28 36 54 80 58 95 13 89 406 55 157 -14 297 -25 312
-25 23 0 35 -13 84 -95 32 -52 61 -95 64 -95 3 0 28 36 54 80 36 59 54 80 70
80 11 1 169 -14 349 -32 l328 -33 57 -92 c31 -51 59 -93 62 -93 9 0 120 185
120 200 0 15 -111 200 -120 200 -3 0 -28 -36 -54 -80 -36 -59 -54 -80 -70 -80
-26 0 -609 58 -651 65 -25 4 -39 19 -85 95 -30 50 -57 90 -60 90 -3 0 -28 -36
-54 -80 -29 -47 -55 -80 -65 -80 -27 0 -624 50 -656 55 -25 4 -38 19 -85 95
-30 50 -57 90 -60 90 -3 0 -28 -37 -56 -82 -49 -79 -53 -83 -85 -81 -19 1
-169 9 -334 18 -165 9 -309 18 -320 20 -12 3 -41 39 -75 95 -30 49 -57 90 -60
90 -3 0 -28 -36 -55 -80 -26 -45 -52 -83 -56 -85 -7 -5 -638 33 -674 40 -12 3
-41 38 -75 95 -30 49 -57 90 -60 90 -3 0 -28 -37 -56 -82 l-51 -83 -144 1
c-79 1 -236 5 -350 9 l-205 7 -54 89 c-30 49 -57 89 -60 89 -3 0 -28 -37 -56
-82 l-51 -83 -300 -3 c-165 -1 -324 1 -353 5 l-53 8 -51 83 c-28 45 -53 82
-56 82 -3 0 -28 -36 -55 -81 -27 -45 -54 -83 -60 -85 -5 -2 -165 -1 -355 3
l-344 8 -24 35 -24 35 46 3 46 3 -16 31 c-17 32 -12 92 7 104 10 6 482 81 617
98 59 8 62 4 32 -54 l-20 -40 155 0 155 0 -20 41 c-20 38 -20 43 -6 74 11 22
25 35 44 39 183 37 626 115 630 111 3 -3 -4 -26 -16 -50 l-22 -45 155 0 155 0
-21 41 c-20 39 -20 67 -1 97 5 6 111 32 238 57 126 25 274 54 328 65 55 11
102 18 104 16 2 -3 -5 -25 -17 -50 l-20 -46 154 0 154 0 -21 46 c-18 43 -19
50 -6 77 l15 31 328 68 c180 37 330 66 332 64 3 -2 -5 -22 -17 -45 l-20 -41
155 0 155 0 -20 40 c-19 37 -19 41 -4 74 12 25 25 35 48 40 17 3 162 32 321
65 171 35 294 55 299 50 6 -5 4 -22 -6 -43 l-16 -34 76 -4 c42 -2 112 -2 154
0 l77 4 -15 30 c-12 23 -13 36 -4 63 6 19 19 36 28 39 9 3 94 16 187 31 303
46 425 68 425 76 0 5 7 9 15 9 11 0 11 -7 -5 -42 l-19 -43 42 -6 c23 -3 57
-12 76 -19 29 -11 42 -11 85 3 28 9 63 18 78 19 l28 3 -25 53 c-14 30 -22 58
-19 63 7 12 31 12 36 0 4 -11 622 59 626 70 2 5 11 9 19 9 8 0 13 -6 10 -12
-3 -7 -12 -29 -21 -49 l-15 -37 62 -6 c82 -10 110 -9 186 1 l64 8 -75 144
c-41 80 -80 147 -86 149 -6 2 -26 -26 -44 -62z m-6541 -1292 c3 -9 -1 -31 -10
-50 l-17 -34 40 0 41 0 -16 -30 c-8 -16 -23 -34 -33 -39 -9 -5 -163 -10 -342
-12 l-325 -4 2 34 c0 18 5 37 11 43 6 6 502 90 635 107 4 1 10 -6 14 -15z
m-919 -151 c3 -19 -3 -22 -70 -28 -40 -3 -120 -5 -178 -3 l-105 3 165 26 c91
15 170 25 175 24 6 -1 11 -11 13 -22z m-1844 -188 c-7 -18 24 -10 -363 -89
l-314 -64 -28 20 -28 21 21 39 c12 21 24 38 27 39 75 7 601 47 638 48 43 1 51
-2 47 -14z m-885 -92 c10 -22 10 -28 -3 -35 -9 -5 -25 -26 -35 -46 l-19 -37
-243 -57 c-447 -105 -436 -103 -464 -88 -14 7 -25 18 -25 24 0 6 17 38 38 71
l38 59 329 67 c182 37 339 67 351 68 13 1 25 -8 33 -26z m-905 -205 l25 -42
-30 -19 c-16 -11 -36 -31 -43 -46 -13 -24 -45 -35 -377 -132 -359 -104 -364
-106 -381 -86 -10 10 -18 25 -18 33 0 10 77 148 96 173 5 6 656 159 681 160
15 1 29 -11 47 -41z m-911 -233 c31 -53 32 -59 9 -101 -30 -55 -71 -78 -327
-189 -137 -59 -297 -129 -355 -155 -174 -78 -184 -76 -122 28 22 37 42 77 43
90 3 20 59 50 359 197 195 95 357 173 360 174 3 1 17 -19 33 -44z m432 -99
c-271 -94 -252 -89 -258 -73 -4 11 47 30 216 79 122 36 229 66 237 66 8 0 -79
-32 -195 -72z m-515 -174 c0 -13 -41 -35 -162 -89 -90 -39 -240 -106 -335
-149 -148 -66 -175 -75 -188 -64 -20 17 -19 18 188 106 84 36 178 77 209 91
107 49 273 121 281 122 4 1 7 -7 7 -17z m-845 -182 c14 -28 14 -33 -4 -67 -11
-21 -37 -57 -58 -80 -38 -41 -702 -527 -710 -519 -3 2 3 16 12 30 11 17 15 35
10 55 -6 28 3 36 362 319 202 160 369 291 370 291 1 1 9 -12 18 -29z m-75
-267 c0 -5 -98 -73 -218 -152 -119 -79 -212 -139 -207 -133 6 6 98 74 205 151
178 129 220 155 220 134z"/>
<path d="M5080 4135 c0 -18 5 -25 20 -25 15 0 20 7 20 25 0 18 -5 25 -20 25
-15 0 -20 -7 -20 -25z"/>
<path d="M3700 4000 c0 -143 1 -150 20 -150 18 0 20 7 20 70 l0 70 75 0 75 0
0 -70 c0 -63 2 -70 20 -70 19 0 20 7 20 150 0 143 -1 150 -20 150 -18 0 -20
-7 -20 -65 l0 -65 -75 0 -75 0 0 65 c0 58 -2 65 -20 65 -19 0 -20 -7 -20 -150z"/>
<path d="M5710 4135 c0 -12 15 -15 76 -15 57 0 75 -3 71 -12 -27 -68 -97 -251
-97 -255 0 -2 10 -3 21 -1 18 2 31 29 75 143 30 77 54 143 54 147 0 5 -45 8
-100 8 -82 0 -100 -3 -100 -15z"/>
<path d="M6031 4056 c-34 -52 -61 -104 -61 -115 0 -19 6 -21 65 -21 l65 0 0
-35 c0 -31 3 -35 25 -35 22 0 25 4 25 35 0 28 4 35 20 35 11 0 20 7 20 15 0 8
-9 15 -20 15 -19 0 -20 7 -20 100 l0 100 -29 0 c-26 0 -36 -11 -90 -94z m66
-103 c-3 -2 -25 -3 -50 -1 l-45 3 47 72 46 73 3 -71 c2 -39 1 -73 -1 -76z"/>
<path d="M6380 4000 l0 -150 75 0 c79 0 127 16 139 45 12 32 6 66 -17 89 -23
23 -23 23 -4 48 14 19 17 34 12 57 -9 44 -48 61 -135 61 l-70 0 0 -150z m150
100 c11 -11 20 -24 20 -30 0 -24 -41 -50 -80 -50 l-40 0 0 50 0 50 40 0 c27 0
47 -7 60 -20z m14 -132 c21 -30 20 -44 -4 -68 -14 -14 -33 -20 -65 -20 l-45 0
0 55 0 55 49 0 c40 0 53 -4 65 -22z"/>
<path d="M6670 4000 l0 -150 100 0 c82 0 100 3 100 15 0 12 -16 15 -80 15
l-80 0 0 55 0 55 75 0 c60 0 75 3 75 15 0 12 -15 15 -75 15 l-75 0 0 50 0 50
75 0 c60 0 75 3 75 15 0 12 -17 15 -95 15 l-95 0 0 -150z"/>
<path d="M6940 4001 c0 -144 1 -151 20 -151 18 0 20 7 20 65 l0 65 33 0 c38 0
64 -23 96 -87 14 -29 28 -43 41 -43 11 0 20 3 20 6 0 8 -51 97 -68 116 -12 14
-11 19 7 37 27 27 27 81 2 112 -16 20 -30 24 -95 27 l-76 4 0 -151z m132 102
c41 -37 9 -93 -54 -93 l-38 0 0 55 0 55 37 0 c20 0 45 -7 55 -17z"/>
<path d="M2853 4110 c-30 -13 -48 -30 -60 -54 l-17 -36 -158 0 -158 0 0 -30 0
-30 158 0 157 0 17 -40 c13 -31 27 -45 60 -60 24 -11 52 -20 63 -20 11 0 39 9
63 20 33 15 47 29 60 60 l17 40 153 0 152 0 0 30 0 30 -153 0 -153 0 -17 36
c-18 36 -80 74 -122 74 -11 0 -39 -9 -62 -20z"/>
<path d="M4027 4063 c-21 -20 -4 -30 43 -25 51 5 80 -7 80 -34 0 -10 -14 -14
-49 -14 -63 0 -101 -28 -101 -74 0 -20 8 -40 19 -50 22 -20 78 -24 110 -7 14
8 21 8 21 1 0 -5 9 -10 20 -10 18 0 20 7 20 85 0 78 -2 88 -25 110 -20 20 -34
25 -78 25 -29 0 -57 -3 -60 -7z m123 -126 c0 -35 -32 -59 -72 -55 -26 2 -34 8
-36 27 -5 32 21 51 70 51 33 0 38 -3 38 -23z"/>
<path d="M4270 3960 c0 -91 3 -110 15 -110 12 0 15 14 15 68 0 86 15 116 59
120 20 2 37 -2 42 -10 5 -7 9 -50 9 -95 0 -76 2 -83 20 -83 18 0 20 7 20 73 0
85 16 117 59 117 43 0 51 -16 51 -107 0 -76 2 -83 20 -83 18 0 20 7 20 81 0
77 -10 115 -34 131 -23 16 -83 8 -101 -12 l-18 -20 -14 20 c-18 25 -88 28
-115 3 -17 -15 -18 -15 -18 0 0 10 -7 17 -15 17 -12 0 -15 -19 -15 -110z"/>
<path d="M4670 3960 c0 -103 1 -110 20 -110 18 0 20 7 20 78 0 88 14 112 63
112 37 0 47 -25 47 -114 0 -69 2 -76 20 -76 18 0 20 7 20 79 0 90 12 111 61
111 38 0 49 -27 49 -121 0 -55 3 -69 15 -69 22 0 22 166 -1 198 -20 29 -85 31
-113 3 -19 -19 -20 -19 -37 0 -21 24 -80 25 -106 2 -17 -15 -18 -15 -18 0 0
10 -8 17 -20 17 -19 0 -20 -7 -20 -110z"/>
<path d="M5080 3960 c0 -103 1 -110 20 -110 19 0 20 7 20 110 0 103 -1 110
-20 110 -19 0 -20 -7 -20 -110z"/>
<path d="M5190 3960 c0 -103 1 -110 20 -110 18 0 20 7 20 78 0 87 14 112 61
112 41 0 49 -18 49 -107 0 -76 2 -83 20 -83 19 0 20 7 20 90 0 77 -3 93 -20
110 -25 25 -86 27 -112 3 -17 -15 -18 -15 -18 0 0 10 -8 17 -20 17 -19 0 -20
-7 -20 -110z"/>
<path d="M5471 4046 c-31 -33 -39 -102 -17 -144 27 -53 71 -65 128 -36 l31 16
-7 -29 c-13 -53 -69 -78 -117 -53 -16 9 -19 7 -19 -9 0 -23 19 -31 72 -31 30
0 46 7 69 29 29 29 29 30 29 155 0 105 -2 126 -15 126 -8 0 -15 -7 -15 -17 0
-15 -1 -15 -18 0 -29 26 -94 22 -121 -7z m106 -14 c19 -12 34 -63 28 -94 -7
-30 -39 -58 -67 -58 -50 0 -77 88 -42 138 15 22 57 29 81 14z"/>
<path d="M3700 3400 c0 -143 1 -150 20 -150 18 0 20 7 20 65 l0 65 33 0 c45 0
69 -19 97 -79 19 -41 28 -51 47 -51 l24 0 -32 58 c-18 31 -36 62 -42 69 -6 8
-2 21 12 39 29 37 26 70 -8 105 -27 27 -35 29 -100 29 l-71 0 0 -150z m131
110 c13 -7 19 -21 19 -45 0 -40 -20 -55 -74 -55 l-36 0 0 55 0 55 36 0 c19 0
44 -5 55 -10z"/>
<path d="M3997 3543 c-21 -20 -4 -29 48 -25 62 5 85 -7 85 -44 0 -27 -26 -44
-69 -44 -21 0 -31 -5 -31 -15 0 -10 10 -15 33 -15 45 0 77 -25 77 -59 0 -47
-30 -65 -100 -58 -53 4 -61 3 -58 -11 2 -13 16 -18 58 -20 29 -2 64 -1 77 3
63 15 85 95 39 138 -24 22 -24 23 -5 35 26 17 26 75 -1 102 -16 16 -33 20 -83
20 -35 0 -67 -3 -70 -7z"/>
<path d="M4390 3400 l0 -152 84 3 c101 5 126 21 126 80 0 28 -6 42 -25 57 -24
19 -24 20 -5 37 25 23 26 66 1 96 -17 21 -30 24 -100 27 l-81 4 0 -152z m144
104 c39 -39 7 -84 -60 -84 l-44 0 0 50 0 50 44 0 c27 0 51 -6 60 -16z m10
-130 c21 -20 20 -53 -1 -76 -11 -13 -30 -18 -65 -18 l-48 0 0 55 0 55 49 0
c32 0 55 -6 65 -16z"/>
<path d="M4680 3400 l0 -150 95 0 c78 0 95 3 95 15 0 12 -15 15 -75 15 l-75 0
0 55 0 55 70 0 c56 0 70 3 70 15 0 12 -14 15 -70 15 l-70 0 0 50 0 50 75 0
c60 0 75 3 75 15 0 12 -17 15 -95 15 l-95 0 0 -150z"/>
<path d="M4940 3400 c0 -143 1 -150 20 -150 18 0 20 7 20 65 l0 65 35 0 c42 0
72 -27 100 -90 12 -26 25 -40 37 -40 10 0 18 2 18 5 0 17 -62 125 -72 125 -6
0 -1 11 12 25 34 37 33 90 -4 121 -23 20 -38 24 -97 24 l-69 0 0 -150z m131
110 c13 -7 19 -21 19 -45 0 -40 -20 -55 -74 -55 l-36 0 0 55 0 55 36 0 c19 0
44 -5 55 -10z"/>
<path d="M2854 2898 l-51 -83 -171 -3 -172 -2 0 -30 0 -30 172 -2 171 -3 51
-82 c28 -46 53 -83 56 -83 3 0 28 37 56 83 l51 82 171 3 172 2 0 30 0 30 -172
2 -171 3 -51 83 c-28 45 -53 82 -56 82 -3 0 -28 -37 -56 -82z"/>
<path d="M3734 2908 c-23 -22 -38 -47 -45 -75 -14 -64 2 -121 45 -160 31 -29
43 -33 90 -33 70 0 106 13 106 40 0 19 -1 20 -30 5 -45 -23 -104 -19 -137 9
-26 22 -28 30 -28 96 0 66 2 74 28 96 33 28 92 32 137 9 29 -15 30 -14 30 5 0
27 -36 40 -106 40 -47 0 -59 -4 -90 -32z"/>
<path d="M4890 2790 l0 -152 84 3 c101 5 126 21 126 80 0 28 -6 42 -25 57 -24
19 -24 20 -5 37 25 23 26 66 1 96 -17 21 -30 24 -100 27 l-81 4 0 -152z m144
104 c39 -39 7 -84 -60 -84 l-44 0 0 50 0 50 44 0 c27 0 51 -6 60 -16z m10
-130 c21 -20 20 -53 -1 -76 -11 -13 -30 -18 -65 -18 l-48 0 0 55 0 55 49 0
c32 0 55 -6 65 -16z"/>
<path d="M5180 2790 l0 -150 95 0 c78 0 95 3 95 15 0 12 -15 15 -75 15 l-75 0
0 55 0 55 70 0 c56 0 70 3 70 15 0 12 -14 15 -70 15 l-70 0 0 50 0 50 75 0
c60 0 75 3 75 15 0 12 -17 15 -95 15 l-95 0 0 -150z"/>
<path d="M5440 2790 c0 -143 1 -150 20 -150 18 0 20 7 20 65 l0 65 35 0 c42 0
72 -27 100 -90 12 -26 25 -40 37 -40 10 0 18 2 18 5 0 17 -62 125 -72 125 -6
0 -1 11 12 25 34 37 33 90 -4 121 -23 20 -38 24 -97 24 l-69 0 0 -150z m131
110 c13 -7 19 -21 19 -45 0 -40 -20 -55 -74 -55 l-36 0 0 55 0 55 36 0 c19 0
44 -5 55 -10z"/>
<path d="M4013 2845 c-31 -22 -47 -85 -33 -135 13 -50 42 -70 101 -70 40 0 51
4 73 31 20 24 26 41 26 79 0 38 -6 55 -26 79 -22 27 -33 31 -73 31 -26 0 -56
-7 -68 -15z m111 -37 c36 -51 9 -138 -42 -138 -36 0 -49 10 -62 44 -12 34 -5
79 17 101 22 23 69 19 87 -7z"/>
<path d="M4240 2750 c0 -103 1 -110 20 -110 18 0 20 7 20 73 0 90 15 117 66
117 43 0 54 -24 54 -121 0 -55 3 -69 15 -69 22 0 22 166 -1 198 -19 27 -88 31
-116 5 -17 -15 -18 -15 -18 0 0 10 -8 17 -20 17 -19 0 -20 -7 -20 -110z"/>
<path d="M4501 2808 c12 -29 31 -79 43 -110 18 -50 25 -58 47 -58 23 0 29 9
62 93 20 50 39 100 43 110 4 12 1 17 -14 17 -16 0 -26 -18 -53 -90 -18 -49
-35 -87 -38 -84 -3 2 -19 41 -36 87 -25 64 -37 83 -54 85 l-21 3 21 -53z"/>
<path d="M3700 2180 l0 -150 73 0 c81 0 115 13 136 51 12 22 12 31 2 57 -7 17
-22 34 -33 38 -19 6 -19 6 1 25 31 29 28 82 -5 108 -22 17 -41 21 -100 21
l-74 0 0 -150z m141 110 c12 -7 19 -21 19 -40 0 -36 -23 -50 -79 -50 l-41 0 0
50 0 50 41 0 c22 0 49 -5 60 -10z m10 -130 c13 -7 19 -21 19 -45 0 -42 -20
-55 -84 -55 l-46 0 0 55 0 55 46 0 c25 0 54 -5 65 -10z"/>
<path d="M4014 2298 c-23 -22 -38 -47 -45 -75 -14 -64 2 -121 45 -160 31 -29
43 -33 90 -33 70 0 106 13 106 40 0 19 -1 20 -30 5 -45 -23 -104 -19 -137 9
-26 22 -28 30 -28 96 0 66 2 74 28 96 33 28 92 32 137 9 29 -15 30 -14 30 5 0
27 -36 40 -106 40 -47 0 -59 -4 -90 -32z"/>
<path d="M4270 2180 c0 -143 1 -150 20 -150 18 0 20 7 20 70 l0 70 75 0 75 0
0 -70 c0 -63 2 -70 20 -70 19 0 20 7 20 150 0 143 -1 150 -20 150 -18 0 -20
-7 -20 -65 l0 -65 -75 0 -75 0 0 65 c0 58 -2 65 -20 65 -19 0 -20 -7 -20 -150z"/>
<path d="M4618 2323 c-20 -3 -28 -10 -28 -25 0 -18 4 -19 35 -14 l35 7 0 -116
0 -115 -30 0 c-20 0 -30 -5 -30 -15 0 -12 16 -15 85 -15 69 0 85 3 85 15 0 10
-11 15 -35 15 l-35 0 0 135 0 135 -27 -1 c-16 -1 -40 -4 -55 -6z"/>
<path d="M4850 2260 l0 -71 49 7 c45 6 52 4 76 -20 22 -22 26 -33 21 -59 -9
-48 -31 -60 -99 -54 -50 5 -58 3 -55 -11 3 -13 17 -18 69 -20 78 -3 114 18
125 74 13 70 -34 124 -111 124 -33 0 -35 2 -35 35 l0 35 65 0 c51 0 65 3 65
15 0 12 -16 15 -85 15 l-85 0 0 -70z"/>
<path d="M5110 2315 c0 -12 14 -15 70 -15 39 0 70 -3 70 -7 0 -7 -24 -72 -81
-215 l-19 -48 23 0 c19 0 29 18 75 138 28 75 52 143 52 150 0 9 -26 12 -95 12
-78 0 -95 -3 -95 -15z"/>
<path d="M5510 2180 l0 -150 75 0 c79 0 127 16 139 45 12 33 5 66 -18 90 -14
14 -20 27 -15 31 21 12 30 57 19 85 -15 36 -49 49 -130 49 l-70 0 0 -150z
m141 110 c12 -7 19 -21 19 -40 0 -35 -23 -50 -74 -50 l-36 0 0 50 0 50 36 0
c19 0 44 -5 55 -10z m19 -140 c42 -42 8 -90 -65 -90 l-45 0 0 55 0 55 45 0
c32 0 51 -6 65 -20z"/>
<path d="M5800 2180 l0 -150 100 0 c82 0 100 3 100 15 0 12 -16 15 -80 15
l-80 0 0 55 0 55 75 0 c60 0 75 3 75 15 0 12 -15 15 -75 15 l-75 0 0 50 0 50
75 0 c60 0 75 3 75 15 0 12 -17 15 -95 15 l-95 0 0 -150z"/>
<path d="M6060 2181 l0 -151 25 0 c24 0 25 2 25 65 l0 65 35 0 c29 0 40 -6 65
-42 17 -23 33 -52 36 -65 4 -16 13 -23 30 -23 l24 0 -26 53 c-14 28 -33 60
-41 69 -13 14 -12 19 6 37 27 27 27 81 2 112 -17 21 -30 24 -100 27 l-81 4 0
-151z m140 99 c24 -24 25 -38 4 -68 -11 -16 -25 -22 -55 -22 l-39 0 0 55 0 55
35 0 c22 0 43 -8 55 -20z"/>
<path d="M2875 2260 l-29 -60 -193 0 -193 0 0 -30 0 -30 176 0 175 0 -7 -22
c-3 -13 -15 -40 -25 -60 l-19 -38 155 0 155 0 -30 60 -30 60 175 0 175 0 0 30
0 30 -192 2 -191 3 -31 57 c-17 32 -34 58 -37 58 -3 0 -18 -27 -34 -60z"/>
<path d="M1700 16102 c-28 -23 -38 -113 -18 -152 32 -60 110 -49 128 20 28
105 -41 188 -110 132z m77 -32 c25 -49 8 -131 -29 -138 -29 -6 -48 26 -48 83
0 81 47 114 77 55z"/>
<path d="M1193 16043 c-15 -3 -23 -12 -23 -24 0 -17 5 -19 35 -13 l35 6 0
-116 0 -116 -35 0 c-24 0 -35 -5 -35 -15 0 -12 17 -15 90 -15 73 0 90 3 90 15
0 10 -11 15 -35 15 l-35 0 0 135 0 135 -32 -1 c-18 -1 -43 -4 -55 -6z"/>
<path d="M1457 16039 c-64 -37 -62 -244 1 -278 36 -19 96 -13 120 12 33 35 48
116 33 179 -16 70 -43 98 -95 98 -23 0 -49 -5 -59 -11z m100 -45 c12 -19 17
-47 17 -94 0 -83 -20 -120 -65 -120 -25 0 -32 6 -45 35 -7 19 -14 57 -14 85 0
28 7 66 14 85 13 29 20 35 45 35 22 0 35 -7 48 -26z"/>
<path d="M1698 11323 c-27 -7 -22 -23 7 -23 25 0 25 -1 25 -80 0 -73 -2 -80
-20 -80 -11 0 -20 -4 -20 -10 0 -6 27 -10 60 -10 33 0 60 4 60 10 0 6 -11 10
-25 10 -25 0 -25 0 -25 95 0 103 -1 104 -62 88z"/>
<path d="M953 11263 c-15 -3 -23 -12 -23 -24 0 -17 5 -19 35 -13 l35 6 0 -116
0 -116 -35 0 c-24 0 -35 -5 -35 -15 0 -12 17 -15 90 -15 73 0 90 3 90 15 0 10
-11 15 -35 15 l-35 0 0 135 0 135 -32 -1 c-18 -1 -43 -4 -55 -6z"/>
<path d="M1217 11259 c-64 -37 -62 -244 1 -278 36 -19 96 -13 120 12 33 35 48
116 33 179 -16 70 -43 98 -95 98 -23 0 -49 -5 -59 -11z m100 -45 c12 -19 17
-47 17 -94 0 -83 -20 -120 -65 -120 -25 0 -32 6 -45 35 -7 19 -14 57 -14 85 0
28 7 66 14 85 13 29 20 35 45 35 22 0 35 -7 48 -26z"/>
<path d="M1440 11210 c0 -6 37 -10 90 -10 53 0 90 4 90 10 0 6 -37 10 -90 10
-53 0 -90 -4 -90 -10z"/>
<path d="M581 9470 c-29 -16 -60 -35 -67 -41 -10 -8 -20 -6 -40 10 -30 24 -52
26 -87 10 -34 -16 -47 -49 -47 -124 l0 -65 150 0 c143 0 150 1 150 20 0 18 -7
20 -65 20 l-65 0 0 33 c0 45 19 69 79 97 40 18 51 28 51 47 0 13 -1 23 -2 23
-2 0 -27 -14 -57 -30z m-111 -79 c5 -11 10 -36 10 -55 l0 -36 -55 0 -55 0 0
36 c0 54 15 74 55 74 24 0 38 -6 45 -19z"/>
<path d="M340 9095 l0 -95 150 0 150 0 0 95 c0 78 -3 95 -15 95 -12 0 -15 -15
-15 -75 l0 -75 -55 0 -55 0 0 70 c0 56 -3 70 -15 70 -12 0 -15 -14 -15 -70 l0
-70 -50 0 -50 0 0 75 c0 60 -3 75 -15 75 -12 0 -15 -17 -15 -95z"/>
<path d="M523 8928 c-13 -6 -25 -20 -29 -30 -6 -19 -6 -19 -25 1 -29 31 -82
28 -108 -5 -17 -22 -21 -41 -21 -100 l0 -74 151 0 151 0 -3 86 c-4 79 -6 87
-32 110 -30 26 -50 29 -84 12z m77 -57 c5 -11 10 -40 10 -65 l0 -46 -55 0 -55
0 0 46 c0 64 13 84 55 84 24 0 38 -6 45 -19z m-140 -10 c5 -11 10 -38 10 -60
l0 -41 -50 0 -50 0 0 41 c0 56 14 79 50 79 19 0 33 -7 40 -19z"/>
<path d="M1688 6553 c-10 -2 -18 -11 -18 -18 0 -11 6 -12 26 -5 14 6 31 10 39
10 16 0 45 -27 45 -41 0 -6 -25 -36 -55 -68 -30 -32 -55 -63 -55 -69 0 -8 24
-12 70 -12 40 0 70 4 70 10 0 6 -23 10 -51 10 l-52 0 47 50 c33 36 46 57 46
79 0 48 -48 71 -112 54z"/>
<path d="M953 6483 c-15 -3 -23 -12 -23 -24 0 -17 5 -19 35 -13 l35 6 0 -116
0 -116 -35 0 c-24 0 -35 -5 -35 -15 0 -12 17 -15 90 -15 73 0 90 3 90 15 0 10
-11 15 -35 15 l-35 0 0 135 0 135 -32 -1 c-18 -1 -43 -4 -55 -6z"/>
<path d="M1217 6479 c-64 -37 -62 -244 1 -278 36 -19 96 -13 120 12 33 35 48
116 33 179 -16 70 -43 98 -95 98 -23 0 -49 -5 -59 -11z m100 -45 c12 -19 17
-47 17 -94 0 -83 -20 -120 -65 -120 -25 0 -32 6 -45 35 -7 19 -14 57 -14 85 0
28 7 66 14 85 13 29 20 35 45 35 22 0 35 -7 48 -26z"/>
<path d="M1440 6440 c0 -6 37 -10 90 -10 53 0 90 4 90 10 0 6 -37 10 -90 10
-53 0 -90 -4 -90 -10z"/>
<path d="M1687 1763 c-16 -15 -5 -21 31 -16 27 4 42 1 51 -11 18 -21 -2 -46
-35 -46 -13 0 -24 -4 -24 -10 0 -5 10 -10 23 -10 29 0 47 -18 47 -47 0 -29
-33 -46 -76 -38 -19 3 -34 2 -34 -3 0 -25 85 -30 118 -6 26 18 29 59 7 84 -14
15 -14 18 0 30 36 30 -3 80 -63 80 -21 0 -42 -3 -45 -7z"/>
<path d="M953 1693 c-15 -3 -23 -12 -23 -24 0 -17 5 -19 35 -13 l35 6 0 -116
0 -116 -35 0 c-24 0 -35 -5 -35 -15 0 -12 17 -15 90 -15 73 0 90 3 90 15 0 10
-11 15 -35 15 l-35 0 0 135 0 135 -32 -1 c-18 -1 -43 -4 -55 -6z"/>
<path d="M1217 1689 c-64 -37 -62 -244 1 -278 36 -19 96 -13 120 12 33 35 48
116 33 179 -16 70 -43 98 -95 98 -23 0 -49 -5 -59 -11z m100 -45 c12 -19 17
-47 17 -94 0 -83 -20 -120 -65 -120 -25 0 -32 6 -45 35 -7 19 -14 57 -14 85 0
28 7 66 14 85 13 29 20 35 45 35 22 0 35 -7 48 -26z"/>
<path d="M1440 1650 c0 -6 37 -10 90 -10 53 0 90 4 90 10 0 6 -37 10 -90 10
-53 0 -90 -4 -90 -10z"/>
<path d="M2567 1249 c-64 -37 -62 -244 1 -278 36 -19 96 -13 120 12 33 35 48
116 33 179 -16 70 -43 98 -95 98 -23 0 -49 -5 -59 -11z m100 -45 c12 -19 17
-47 17 -94 0 -83 -20 -120 -65 -120 -25 0 -32 6 -45 35 -18 44 -18 126 0 170
13 29 20 35 45 35 22 0 35 -7 48 -26z"/>
<path d="M2923 1253 c-7 -2 -13 -14 -13 -25 0 -15 4 -18 18 -12 9 4 36 9 59
12 36 3 44 0 58 -22 24 -36 13 -57 -66 -141 -94 -99 -93 -105 26 -105 78 0 95
3 95 15 0 12 -15 15 -72 15 l-71 0 60 63 c33 34 65 73 72 86 17 31 6 87 -22
106 -21 14 -116 20 -144 8z"/>
<path d="M4407 1249 c-64 -37 -62 -244 1 -278 36 -19 96 -13 120 12 33 35 48
116 33 179 -16 70 -43 98 -95 98 -23 0 -49 -5 -59 -11z m100 -45 c12 -19 17
-47 17 -94 0 -83 -20 -120 -65 -120 -25 0 -32 6 -45 35 -18 44 -18 126 0 170
13 29 20 35 45 35 22 0 35 -7 48 -26z"/>
<path d="M4767 1253 c-21 -20 -4 -29 48 -25 62 5 85 -7 85 -44 0 -27 -26 -44
-69 -44 -21 0 -31 -5 -31 -15 0 -10 11 -15 35 -15 38 0 75 -28 75 -58 0 -10
-7 -28 -16 -41 -16 -22 -22 -23 -81 -18 -56 4 -64 3 -61 -12 3 -13 18 -17 71
-19 63 -3 69 -1 97 27 37 37 40 79 6 110 -24 22 -24 23 -5 42 26 26 24 71 -4
97 -19 18 -35 22 -83 22 -34 0 -64 -3 -67 -7z"/>
<path d="M6257 1249 c-64 -37 -62 -244 1 -278 36 -19 96 -13 120 12 33 35 48
116 33 179 -16 70 -43 98 -95 98 -23 0 -49 -5 -59 -11z m100 -45 c12 -19 17
-47 17 -94 0 -83 -20 -120 -65 -120 -25 0 -32 6 -45 35 -7 19 -14 57 -14 85 0
28 7 66 14 85 13 29 20 35 45 35 22 0 35 -7 48 -26z"/>
<path d="M6652 1164 c-81 -125 -81 -134 3 -134 l65 0 0 -35 c0 -31 3 -35 25
-35 22 0 25 4 25 35 0 28 4 35 20 35 11 0 20 7 20 15 0 8 -9 15 -20 15 -19 0
-20 7 -20 100 l0 100 -28 0 c-25 0 -36 -12 -90 -96z m68 -29 l0 -75 -50 0 -49
0 47 75 c26 41 48 75 50 75 1 0 2 -34 2 -75z"/>
<path d="M8097 1249 c-64 -37 -62 -244 1 -278 36 -19 96 -13 120 12 33 35 48
116 33 179 -16 70 -43 98 -95 98 -23 0 -49 -5 -59 -11z m100 -45 c12 -19 17
-47 17 -94 0 -83 -20 -120 -65 -120 -25 0 -32 6 -45 35 -7 19 -14 57 -14 85 0
28 7 66 14 85 13 29 20 35 45 35 22 0 35 -7 48 -26z"/>
<path d="M8450 1189 l0 -70 45 7 c63 9 95 -12 95 -65 0 -57 -25 -75 -95 -68
-49 5 -56 4 -53 -11 3 -13 17 -18 65 -20 74 -3 100 8 119 53 29 71 -11 133
-90 142 -44 5 -46 7 -46 39 l0 34 60 0 c47 0 60 3 60 15 0 12 -16 15 -80 15
l-80 0 0 -71z"/>
<path d="M9947 1249 c-64 -37 -62 -244 1 -278 36 -19 96 -13 120 12 33 35 48
116 33 179 -16 70 -43 98 -95 98 -23 0 -49 -5 -59 -11z m100 -45 c12 -19 17
-47 17 -94 0 -83 -20 -120 -65 -120 -25 0 -32 6 -45 35 -7 19 -14 57 -14 85 0
28 7 66 14 85 13 29 20 35 45 35 22 0 35 -7 48 -26z"/>
<path d="M10344 1246 c-69 -49 -73 -239 -6 -275 12 -6 37 -11 57 -11 49 0 74
15 91 56 39 93 -57 182 -135 127 l-24 -16 6 34 c10 51 42 72 100 66 40 -3 47
-2 45 12 -4 22 -105 28 -134 7z m88 -133 c21 -19 25 -92 6 -111 -7 -7 -26 -12
-43 -12 -41 0 -55 16 -55 64 0 66 49 98 92 59z"/>
<path d="M11797 1249 c-64 -37 -62 -244 1 -278 36 -19 96 -13 120 12 33 35 48
116 33 179 -16 70 -43 98 -95 98 -23 0 -49 -5 -59 -11z m100 -45 c12 -19 17
-47 17 -94 0 -83 -20 -120 -65 -120 -25 0 -32 6 -45 35 -7 19 -14 57 -14 85 0
28 7 66 14 85 13 29 20 35 45 35 22 0 35 -7 48 -26z"/>
<path d="M12140 1245 c0 -12 14 -15 70 -15 39 0 70 -4 70 -10 0 -5 -20 -62
-45 -126 -25 -64 -45 -120 -45 -125 0 -5 8 -9 19 -9 14 0 29 28 69 133 28 72
53 140 57 150 7 15 -2 17 -94 17 -83 0 -101 -3 -101 -15z"/>
<path d="M13637 1249 c-64 -37 -62 -244 1 -278 36 -19 96 -13 120 12 33 35 48
116 33 179 -16 70 -43 98 -95 98 -23 0 -49 -5 -59 -11z m100 -45 c12 -19 17
-47 17 -94 0 -83 -20 -120 -65 -120 -25 0 -32 6 -45 35 -7 19 -14 57 -14 85 0
28 7 66 14 85 13 29 20 35 45 35 22 0 35 -7 48 -26z"/>
<path d="M14013 1245 c-33 -23 -38 -63 -13 -98 l22 -29 -21 -22 c-31 -33 -28
-89 5 -115 39 -31 123 -29 152 2 32 33 30 89 -3 116 -21 15 -23 21 -12 28 17
10 37 46 37 68 0 9 -11 27 -25 40 -19 20 -34 25 -72 25 -27 0 -58 -7 -70 -15z
m103 -23 c24 -15 26 -50 5 -71 -23 -23 -43 -26 -72 -11 -22 12 -26 59 -7 78
13 13 57 16 74 4z m8 -138 c19 -18 21 -65 4 -82 -7 -7 -28 -12 -48 -12 -43 0
-60 14 -60 51 0 36 24 59 60 59 16 0 36 -7 44 -16z"/>
<path d="M15487 1249 c-64 -37 -62 -244 1 -278 36 -19 96 -13 120 12 33 35 48
116 33 179 -16 70 -43 98 -95 98 -23 0 -49 -5 -59 -11z m100 -45 c12 -19 17
-47 17 -94 0 -83 -20 -120 -65 -120 -25 0 -32 6 -45 35 -7 19 -14 57 -14 85 0
28 7 66 14 85 13 29 20 35 45 35 22 0 35 -7 48 -26z"/>
<path d="M15863 1245 c-12 -8 -27 -31 -33 -50 -30 -91 64 -171 139 -118 l24
16 -6 -34 c-10 -51 -42 -72 -100 -66 -40 3 -47 2 -45 -12 4 -22 101 -28 132
-7 71 46 76 239 8 275 -30 16 -94 13 -119 -4z m105 -27 c18 -18 15 -88 -5
-110 -20 -22 -51 -23 -75 -1 -21 19 -25 92 -6 111 16 16 70 16 86 0z"/>
<path d="M2790 985 c0 -18 5 -25 20 -25 15 0 20 7 20 25 0 18 -5 25 -20 25
-15 0 -20 -7 -20 -25z"/>
<path d="M4630 985 c0 -18 5 -25 20 -25 15 0 20 7 20 25 0 18 -5 25 -20 25
-15 0 -20 -7 -20 -25z"/>
<path d="M6480 985 c0 -18 5 -25 20 -25 15 0 20 7 20 25 0 18 -5 25 -20 25
-15 0 -20 -7 -20 -25z"/>
<path d="M8320 985 c0 -18 5 -25 20 -25 15 0 20 7 20 25 0 18 -5 25 -20 25
-15 0 -20 -7 -20 -25z"/>
<path d="M10170 985 c0 -18 5 -25 20 -25 15 0 20 7 20 25 0 18 -5 25 -20 25
-15 0 -20 -7 -20 -25z"/>
<path d="M12020 985 c0 -18 5 -25 20 -25 15 0 20 7 20 25 0 18 -5 25 -20 25
-15 0 -20 -7 -20 -25z"/>
<path d="M13860 985 c0 -18 5 -25 20 -25 15 0 20 7 20 25 0 18 -5 25 -20 25
-15 0 -20 -7 -20 -25z"/>
<path d="M15710 985 c0 -18 5 -25 20 -25 15 0 20 7 20 25 0 18 -5 25 -20 25
-15 0 -20 -7 -20 -25z"/>
<path d="M10720 545 c0 -148 1 -155 20 -155 11 0 20 5 20 10 0 7 6 7 19 0 22
-11 71 -13 96 -4 24 10 45 58 45 104 0 46 -21 94 -45 104 -25 9 -74 7 -96 -4
-18 -10 -19 -7 -19 45 0 48 -2 55 -20 55 -19 0 -20 -7 -20 -155z m142 18 c24
-21 25 -99 1 -125 -20 -22 -61 -23 -85 -1 -24 21 -25 99 -1 125 20 22 61 23
85 1z"/>
<path d="M11240 545 c0 -148 1 -155 20 -155 11 0 20 5 20 10 0 7 6 7 19 0 22
-11 71 -13 96 -4 24 10 45 58 45 104 0 46 -21 94 -45 104 -25 9 -74 7 -96 -4
-18 -10 -19 -7 -19 45 0 48 -2 55 -20 55 -19 0 -20 -7 -20 -155z m142 18 c24
-21 25 -99 1 -125 -20 -22 -61 -23 -85 -1 -24 21 -25 99 -1 125 20 22 61 23
85 1z"/>
<path d="M11500 675 c0 -18 5 -25 20 -25 15 0 20 7 20 25 0 18 -5 25 -20 25
-15 0 -20 -7 -20 -25z"/>
<path d="M11620 545 c0 -148 1 -155 20 -155 19 0 20 7 20 155 0 148 -1 155
-20 155 -19 0 -20 -7 -20 -155z"/>
<path d="M11730 675 c0 -18 5 -25 20 -25 15 0 20 7 20 25 0 18 -5 25 -20 25
-15 0 -20 -7 -20 -25z"/>
<path d="M6890 540 l0 -150 73 0 c81 0 115 13 136 51 12 22 12 31 2 57 -7 17
-22 34 -33 38 -19 6 -19 6 1 25 31 29 28 82 -5 108 -22 17 -41 21 -100 21
l-74 0 0 -150z m141 110 c12 -7 19 -21 19 -40 0 -36 -23 -50 -79 -50 l-41 0 0
50 0 50 41 0 c22 0 49 -5 60 -10z m10 -130 c13 -7 19 -21 19 -45 0 -42 -20
-55 -84 -55 l-46 0 0 55 0 55 46 0 c25 0 54 -5 65 -10z"/>
<path d="M7187 670 c-21 -17 -27 -30 -27 -59 0 -47 19 -66 85 -82 81 -19 107
-56 66 -93 -15 -14 -32 -17 -68 -14 -26 3 -56 8 -65 12 -14 6 -18 4 -18 -12 0
-24 25 -32 103 -32 72 0 107 28 107 85 0 44 -25 71 -82 85 -72 18 -88 28 -88
54 0 38 23 49 91 43 52 -4 60 -3 57 11 -3 13 -17 18 -69 20 -54 2 -70 -1 -92
-18z"/>
<path d="M7482 670 c-39 -24 -62 -73 -62 -130 0 -95 54 -150 148 -150 63 0 92
13 92 41 0 19 -1 19 -22 5 -13 -9 -43 -16 -71 -16 -57 0 -91 29 -101 85 -10
49 2 100 30 130 18 20 33 25 71 25 28 0 58 -7 71 -16 21 -14 22 -14 22 5 0 28
-29 41 -92 41 -36 0 -64 -7 -86 -20z"/>
<path d="M7909 673 c-88 -54 -84 -230 6 -271 33 -15 117 -15 150 0 14 6 25 20
25 30 0 17 -2 18 -30 3 -49 -25 -107 -20 -141 14 -26 26 -29 36 -29 91 0 55 3
65 29 91 34 34 92 39 141 14 28 -15 30 -14 30 3 0 10 -11 24 -25 30 -38 17
-125 14 -156 -5z"/>
<path d="M10060 540 c0 -143 1 -150 20 -150 18 0 20 7 20 60 l0 60 51 0 c43 0
55 5 80 29 20 20 29 39 29 61 0 22 -9 41 -29 61 -27 27 -35 29 -100 29 l-71 0
0 -150z m131 110 c14 -8 19 -21 19 -50 0 -45 -18 -60 -74 -60 l-36 0 0 60 0
60 36 0 c19 0 44 -5 55 -10z"/>
<path d="M11850 645 c0 -24 -5 -35 -15 -35 -8 0 -15 -7 -15 -15 0 -8 7 -15 15
-15 12 0 15 -15 15 -75 0 -91 17 -115 80 -115 54 0 56 27 3 32 l-38 3 -3 78
-3 77 41 0 c29 0 40 4 40 15 0 11 -11 15 -40 15 -39 0 -40 1 -40 35 0 28 -4
35 -20 35 -16 0 -20 -7 -20 -35z"/>
<path d="M8150 500 c0 -103 1 -110 20 -110 18 0 20 7 20 79 0 90 12 111 61
111 19 0 29 5 29 15 0 18 -41 20 -71 5 -13 -7 -19 -7 -19 0 0 5 -9 10 -20 10
-19 0 -20 -7 -20 -110z"/>
<path d="M8325 584 c-21 -22 -25 -37 -25 -84 0 -79 28 -110 99 -110 43 0 53 4
75 31 20 24 26 41 26 79 0 38 -6 55 -26 79 -22 27 -32 31 -75 31 -41 0 -54 -5
-74 -26z m117 -21 c12 -11 18 -30 18 -61 0 -53 -21 -82 -60 -82 -38 0 -63 31
-63 80 0 69 59 105 105 63z"/>
<path d="M8570 590 c-41 -41 -22 -79 52 -100 45 -14 53 -19 53 -40 0 -24 -3
-25 -63 -24 -53 1 -62 -2 -60 -15 2 -12 18 -17 62 -19 72 -4 106 15 106 58 0
34 -23 53 -88 70 -36 9 -43 15 -40 33 3 20 9 22 61 22 46 0 57 2 55 15 -2 11
-19 16 -60 18 -47 2 -61 -1 -78 -18z"/>
<path d="M8787 592 c-21 -23 -22 -65 -2 -82 8 -6 36 -17 62 -24 41 -10 48 -16
48 -37 0 -23 -3 -24 -63 -23 -53 1 -62 -2 -60 -15 2 -12 18 -17 62 -19 72 -4
106 15 106 58 0 34 -23 53 -88 70 -36 9 -43 15 -40 33 3 20 9 22 61 22 46 0
57 2 55 15 -2 11 -19 16 -64 18 -48 2 -63 -1 -77 -16z"/>
<path d="M9023 595 c-31 -22 -47 -85 -33 -135 13 -50 42 -70 101 -70 40 0 51
4 73 31 20 24 26 41 26 79 0 38 -6 55 -26 79 -22 27 -33 31 -73 31 -26 0 -56
-7 -68 -15z m111 -37 c36 -51 9 -138 -42 -138 -36 0 -49 10 -62 44 -12 34 -5
79 17 101 22 23 69 19 87 -7z"/>
<path d="M9234 593 c4 -10 23 -60 43 -110 33 -85 39 -93 63 -93 23 0 29 7 47
58 11 31 30 81 42 110 l21 53 -21 -3 c-17 -2 -28 -20 -48 -73 -15 -38 -31 -79
-35 -90 -6 -16 -15 -1 -43 73 -28 73 -40 92 -55 92 -15 0 -18 -5 -14 -17z"/>
<path d="M9531 594 c-57 -41 -62 -134 -9 -179 23 -20 41 -25 83 -25 62 0 85 7
85 25 0 9 -16 11 -63 8 -60 -5 -65 -4 -85 22 -12 15 -22 32 -22 36 0 5 40 9
89 9 l88 0 -7 42 c-5 24 -17 50 -30 60 -28 23 -98 24 -129 2z m113 -36 c9 -12
16 -26 16 -30 0 -5 -29 -8 -65 -8 -50 0 -65 3 -65 14 0 46 86 64 114 24z"/>
<path d="M9750 500 c0 -103 1 -110 20 -110 18 0 20 7 20 68 0 89 14 116 63
120 24 2 37 8 37 18 0 20 -59 18 -82 -3 -17 -15 -18 -15 -18 0 0 10 -8 17 -20
17 -19 0 -20 -7 -20 -110z"/>
<path d="M10300 500 c0 -103 1 -110 20 -110 18 0 20 7 20 73 0 89 15 117 66
117 24 0 34 5 34 15 0 21 -58 20 -82 -2 -17 -15 -18 -15 -18 0 0 10 -8 17 -20
17 -19 0 -20 -7 -20 -110z"/>
<path d="M10483 586 c-25 -22 -28 -31 -28 -86 0 -55 3 -64 28 -86 33 -28 100
-33 134 -9 49 34 53 136 8 181 -34 34 -103 33 -142 0z m118 -23 c8 -9 14 -37
14 -63 0 -58 -17 -80 -61 -80 -40 0 -64 29 -64 80 0 51 24 80 64 80 19 0 40
-7 47 -17z"/>
<path d="M10997 603 c-20 -19 -3 -28 49 -28 47 0 59 -4 71 -22 15 -23 15 -23
-41 -23 -47 0 -61 -4 -81 -25 -29 -28 -32 -61 -9 -93 19 -27 87 -31 122 -6 20
14 22 14 22 0 0 -9 7 -16 15 -16 12 0 15 16 15 88 0 80 -2 91 -23 110 -18 17
-36 22 -78 22 -31 0 -59 -3 -62 -7z m127 -125 c-10 -36 -35 -58 -64 -58 -30 0
-50 16 -50 42 0 24 27 37 78 38 40 0 43 -2 36 -22z"/>
<path d="M11500 500 c0 -103 1 -110 20 -110 19 0 20 7 20 110 0 103 -1 110
-20 110 -19 0 -20 -7 -20 -110z"/>
<path d="M11730 500 c0 -103 1 -110 20 -110 19 0 20 7 20 110 0 103 -1 110
-20 110 -19 0 -20 -7 -20 -110z"/>
<path d="M11990 606 c0 -2 20 -52 45 -111 42 -102 44 -108 30 -136 -9 -17 -24
-29 -35 -29 -11 0 -20 -7 -20 -15 0 -8 9 -15 19 -15 51 0 60 14 134 198 43
107 45 113 24 110 -16 -2 -28 -21 -52 -80 -17 -42 -33 -79 -35 -82 -3 -2 -20
33 -39 80 -26 63 -39 84 -53 84 -10 0 -18 -2 -18 -4z"/>
<path d="M12390 455 c0 -148 1 -155 20 -155 18 0 20 7 20 61 0 55 1 59 16 45
21 -21 86 -20 113 2 12 9 26 34 30 55 11 48 -2 107 -30 130 -27 21 -92 22
-113 1 -15 -14 -16 -14 -16 0 0 9 -8 16 -20 16 -19 0 -20 -7 -20 -155z m143
110 c32 -32 28 -115 -6 -137 -24 -15 -66 -8 -81 14 -37 52 -9 138 44 138 16 0
35 -7 43 -15z"/>
</g>
</svg>
